<svg width="56" height="86" viewBox="0 0 56 86" fill="none" xmlns="http://www.w3.org/2000/svg">
<path d="M45.2708 0L35.5623 27.1113H30.1679L39.848 0.0221431V0H45.2708Z" fill="#9871F3"/>
<path d="M39.8476 0V0.0221431L30.1676 27.1113H24.8409L34.521 0.0221431V0H39.8476Z" fill="#F0F0F0"/>
<path d="M34.5214 0V0.0221431L24.8412 27.1113H19.3995L29.108 0H34.5214Z" fill="#6F9DE2"/>
<path d="M39.355 27.515C40.0679 29.105 40.4638 30.8163 40.527 32.553C36.7114 30.6034 32.3879 29.504 27.8089 29.504C22.9744 29.504 18.4269 30.7296 14.46 32.8842C14.4805 31.034 14.8827 29.2058 15.6399 27.5149L15.9932 26.7278C16.3875 25.8461 17.2078 25.2294 18.1652 25.0953L19.2078 24.9486C24.7064 24.1789 30.2885 24.1789 35.7887 24.9486L36.8297 25.0953C37.7872 25.2294 38.6074 25.8461 39.0018 26.7278L39.355 27.515ZM36.5489 28.2894V27.2547C36.5489 26.955 36.3059 26.7121 36.0063 26.7121H18.9884C18.6888 26.7121 18.4458 26.9551 18.4458 27.2547V28.2894C18.4458 28.5906 18.6888 28.8336 18.9884 28.8336H36.0063C36.3059 28.8336 36.5489 28.5907 36.5489 28.2894Z" fill="#F69C62"/>
<path d="M9.68945 0L19.3979 27.1113H24.7924L15.1124 0.0221431V0H9.68945Z" fill="#6F9DE2"/>
<path d="M15.1124 0V0.0221431L24.7924 27.1113H30.1191L20.439 0.0221431V0H15.1124Z" fill="#F0F0F0"/>
<path d="M20.4395 0V0.0221431L30.1195 27.1113H35.5613L25.8529 0H20.4395Z" fill="#9871F3"/>
<path d="M40.7172 32.553C49.7885 37.184 56 46.618 56 57.5031C56 72.9673 43.4634 85.5039 27.9993 85.5039C12.5351 85.5039 0 72.9673 0 57.5031C0 46.8735 5.92291 37.6271 14.6502 32.8841C18.6172 30.7295 23.1646 29.5039 27.9992 29.5039C32.5782 29.5039 36.9016 30.6033 40.7172 32.553Z" fill="#E68A54"/>
<path d="M27.9993 83.2724C21.1162 83.2724 14.6454 80.5919 9.77856 75.7247C4.91174 70.8576 2.23151 64.3863 2.23151 57.5031C2.23151 48.0473 7.3981 39.3654 15.7149 34.8455C19.4609 32.8109 23.7089 31.7354 27.9993 31.7354C32.1222 31.7354 36.0598 32.6792 39.7029 34.5407C43.8693 36.6677 47.3839 39.8918 49.8675 43.8647C52.4196 47.9474 53.7686 52.6635 53.7686 57.5032C53.7686 64.3863 51.0881 70.8575 46.2209 75.7248C41.3536 80.592 34.8824 83.2724 27.9993 83.2724Z" fill="#F69C62"/>
<path d="M23.4245 33.0068C23.4222 33.0085 23.4223 33.0102 23.4202 33.0119C23.2997 33.1199 21.5922 34.6904 20.9222 36.0566C20.2261 37.4718 18.0629 38.8904 18.0626 38.8909C18.0588 38.8912 18.1339 36.7243 19.0415 35.7303C20.1239 34.5309 23.3242 33.051 23.4245 33.0068Z" fill="#BC7546"/>
<path d="M22.7284 34.1384C22.3419 35.0772 22.1176 35.8867 21.5564 36.9253C21.2292 37.5312 19.6745 38.5746 18.7349 38.7999C18.3593 38.9398 18.0625 38.891 18.0625 38.891C18.0629 38.8904 20.226 37.4719 20.922 36.0566C21.592 34.6903 23.2993 33.1199 23.4201 33.012C23.368 33.0815 22.931 33.6487 22.7284 34.1384Z" fill="#F9C8A9"/>
<path d="M25.9628 37.4892C25.96 37.4896 25.9586 37.4908 25.9558 37.4911C25.7867 37.5141 23.3564 37.8641 21.8074 38.6003C20.2023 39.3646 17.5478 39.3131 17.5478 39.3131C17.5456 39.3121 19.3218 37.6149 20.7403 37.3065C22.4442 36.9325 25.8555 37.4723 25.9628 37.4892Z" fill="#BC7546"/>
<path d="M24.5886 38.0316C23.5819 38.5841 22.789 39.1173 21.5733 39.648C20.8642 39.9582 18.9355 39.9449 18.0939 39.6088C17.7172 39.5146 17.5478 39.3126 17.5478 39.3126C17.5478 39.3126 20.2024 39.3645 21.8075 38.6003C23.3563 37.864 25.7867 37.514 25.9559 37.491C25.8648 37.5194 25.1139 37.7441 24.5886 38.0316Z" fill="#F9C8A9"/>
<path d="M18.1919 36.0876C18.1902 36.0896 18.1904 36.0912 18.1886 36.0931C18.088 36.2137 16.678 37.9636 16.2733 39.386C15.8509 40.8592 13.965 42.5205 13.9652 42.5209C13.9613 42.5215 13.6088 40.3878 14.3239 39.301C15.1731 37.9907 18.099 36.1432 18.1919 36.0876Z" fill="#BC7546"/>
<path d="M17.7117 37.2821C17.5057 38.2497 17.4379 39.0706 17.0778 40.1585C16.8673 40.7931 15.5153 42.0097 14.6197 42.3478C14.2711 42.532 13.9648 42.521 13.9648 42.521C13.9644 42.5205 15.8507 40.8593 16.2729 39.3861C16.6774 37.9637 18.0876 36.2139 18.1882 36.0933C18.1492 36.1678 17.8199 36.7774 17.7117 37.2821Z" fill="#F9C8A9"/>
<path d="M21.598 40.1662C21.5954 40.1668 21.594 40.1682 21.5913 40.1688C21.4266 40.2122 19.0611 40.8553 17.6545 41.77C16.1977 42.7187 13.5325 42.9992 13.5321 42.999C13.5293 42.9985 14.9727 41.1126 16.334 40.6336C17.9681 40.0542 21.4882 40.1622 21.598 40.1662Z" fill="#BC7546"/>
<path d="M20.3269 40.8678C19.4263 41.5342 18.7364 42.1556 17.6243 42.8271C16.9762 43.2192 15.0452 43.4458 14.1369 43.2212C13.7417 43.1758 13.532 42.9988 13.532 42.9988C13.5325 42.9991 16.1977 42.7186 17.6544 41.7699C19.061 40.8553 21.4265 40.2121 21.5912 40.1687C21.5055 40.2078 20.7974 40.5206 20.3269 40.8678Z" fill="#F9C8A9"/>
<path d="M13.3022 39.9895C13.3009 39.9917 13.3016 39.9932 13.3005 39.9955C13.2363 40.1303 12.3659 42.0799 12.3981 43.5214C12.4258 45.0146 11.0732 46.9783 11.0744 46.979C11.071 46.9797 10.069 45.0043 10.4443 43.8241C10.8819 42.4023 13.2256 40.0605 13.3022 39.9895Z" fill="#BC7546"/>
<path d="M13.1859 41.2253C13.2735 42.1911 13.454 42.99 13.4274 44.1029C13.4109 44.7521 12.4461 46.1836 11.6669 46.684C11.3796 46.9291 11.074 46.9789 11.074 46.9789C11.0731 46.9782 12.4257 45.0145 12.3978 43.5213C12.3655 42.0798 13.236 40.1302 13.3003 39.9954C13.284 40.0743 13.1408 40.7216 13.1859 41.2253Z" fill="#F9C8A9"/>
<path d="M17.8936 43.2275C17.8912 43.2287 17.8901 43.2302 17.8878 43.2314C17.7379 43.3049 15.5934 44.3823 14.4829 45.535C13.333 46.7295 10.7938 47.5221 10.7938 47.5221C10.7897 47.5221 11.6353 45.4298 12.8357 44.704C14.2741 43.8274 17.7846 43.2445 17.8936 43.2275Z" fill="#BC7546"/>
<path d="M16.8489 44.1481C16.1596 44.9629 15.6662 45.6939 14.7735 46.5556C14.2533 47.0585 12.4214 47.6536 11.4578 47.6167C11.0547 47.6506 10.7936 47.5223 10.7938 47.5222C10.7945 47.5221 13.3335 46.7295 14.4835 45.535C15.5939 44.3822 17.7385 43.3049 17.8884 43.2314C17.8153 43.2855 17.2093 43.7234 16.8489 44.1481Z" fill="#F9C8A9"/>
<path d="M9.77064 44.3562C9.76979 44.3585 9.77087 44.3599 9.76994 44.3622C9.72643 44.5014 9.16165 46.51 9.42356 47.9318C9.68803 49.4051 8.64851 51.4765 8.64983 51.477C8.64681 51.4779 7.3274 49.6193 7.51422 48.4174C7.72449 46.9702 9.70437 44.4335 9.77064 44.3562Z" fill="#BC7546"/>
<path d="M9.84913 45.5881C10.09 46.5338 10.3971 47.3062 10.5468 48.4092C10.6331 49.0525 9.89457 50.5602 9.19523 51.1293C8.94686 51.3989 8.64942 51.4773 8.64942 51.4773C8.64779 51.4768 9.68747 49.4053 9.42315 47.9321C9.16116 46.5101 9.72626 44.5018 9.76953 44.3625C9.76566 44.4418 9.72425 45.0947 9.84913 45.5881Z" fill="#F9C8A9"/>
<path d="M14.8838 47.1208C14.8814 47.1222 14.8811 47.1239 14.8786 47.1253C14.7398 47.2119 12.7606 48.4798 11.832 49.7253C10.8699 51.0158 8.45794 52.0409 8.45709 52.0412C8.45337 52.0413 8.96397 49.8912 10.0513 49.0595C11.3523 48.0557 14.7773 47.1478 14.8838 47.1208Z" fill="#BC7546"/>
<path d="M13.9813 48.1299C13.4187 49.0009 13.0404 49.7706 12.2837 50.7077C11.8428 51.2546 10.1059 52.0165 9.13636 52.0717C8.73865 52.1435 8.45707 52.0412 8.45707 52.0412C8.45784 52.0409 10.8699 51.0158 11.832 49.7253C12.7604 48.4798 14.7397 47.212 14.8786 47.1252C14.8141 47.1855 14.2752 47.6757 13.9813 48.1299Z" fill="#F9C8A9"/>
<path d="M7.09354 49.1216C7.09362 49.1239 7.09463 49.1251 7.09439 49.1275C7.08603 49.2696 7.03292 51.3127 7.65275 52.6568C8.28651 54.0503 7.7863 56.2354 7.78847 56.2358C7.78653 56.2367 6.00787 54.6321 5.88601 53.4321C5.7235 51.9886 7.04585 49.2069 7.09354 49.1216Z" fill="#BC7546"/>
<path d="M7.48258 50.3073C7.96011 51.1894 8.45909 51.893 8.8856 52.9444C9.13304 53.5578 8.78441 55.1446 8.23891 55.8102C8.06239 56.1125 7.78855 56.2358 7.78855 56.2358C7.78623 56.2354 8.28667 54.0502 7.65283 52.6567C7.03292 51.3125 7.08611 49.2696 7.09447 49.1274C7.11027 49.2054 7.23406 49.8469 7.48258 50.3073Z" fill="#F9C8A9"/>
<path d="M12.8556 51.0073C12.8537 51.009 12.8537 51.0106 12.8516 51.0124C12.7354 51.1185 11.092 52.6648 10.4885 54.026C9.86197 55.4359 7.74312 56.8162 7.74265 56.8167C7.73878 56.8172 7.69427 54.6387 8.55983 53.6567C9.59185 52.4724 12.7565 51.0498 12.8556 51.0073Z" fill="#BC7546"/>
<path d="M12.2141 52.1327C11.8752 53.0704 11.6937 53.8807 11.1824 54.9141C10.8841 55.5169 9.36336 56.5333 8.42115 56.7397C8.04744 56.8724 7.74287 56.8168 7.7431 56.8168C7.74333 56.8164 9.86234 55.4361 10.4889 54.0261C11.0922 52.6648 12.7358 51.1187 12.852 51.0125C12.8029 51.0814 12.3917 51.6437 12.2141 52.1327Z" fill="#F9C8A9"/>
<path d="M5.56938 54.0344C5.56984 54.0367 5.57131 54.0378 5.57162 54.0401C5.59724 54.1801 6.0404 56.1839 6.97959 57.4073C7.94364 58.6763 7.98142 60.8927 7.98444 60.8928C7.98328 60.8937 5.83694 59.5851 5.42259 58.4296C4.9079 57.0408 5.54158 54.1246 5.56938 54.0344Z" fill="#BC7546"/>
<path d="M6.24135 55.1349C6.92769 55.926 7.59165 56.5397 8.26722 57.5057C8.6599 58.0693 8.69992 59.6757 8.32443 60.4091C8.22379 60.7316 7.98424 60.893 7.98424 60.893C7.98122 60.8929 7.94329 58.6765 6.97933 57.4075C6.04014 56.1842 5.59698 54.1802 5.57135 54.0403C5.60603 54.1138 5.8839 54.722 6.24135 55.1349Z" fill="#F9C8A9"/>
<path d="M11.7265 55.0208C11.725 55.0227 11.7252 55.0243 11.7237 55.0263C11.6339 55.1472 10.3777 56.9044 10.1112 58.3274C9.83182 59.8016 8.08048 61.4687 8.08064 61.4693C8.07684 61.47 7.50115 59.3411 8.11781 58.2514C8.84843 56.9381 11.6378 55.0767 11.7265 55.0208Z" fill="#BC7546"/>
<path d="M11.3599 56.2177C11.2492 57.1863 11.2644 58.007 11.0088 59.0956C10.8598 59.7305 9.60683 60.9517 8.72926 61.2936C8.3931 61.4791 8.07993 61.4696 8.07993 61.4696C8.0797 61.4691 9.83103 59.8018 10.1105 58.3277C10.3772 56.9044 11.6332 55.1477 11.723 55.0266C11.6908 55.1013 11.4185 55.7126 11.3599 56.2177Z" fill="#F9C8A9"/>
<path d="M5.4988 59.7556C5.50012 59.7578 5.50174 59.7586 5.5029 59.7606C5.57421 59.8899 6.6718 61.7267 7.98795 62.7149C9.34274 63.7412 10.1163 65.8772 10.1197 65.8768C10.1193 65.8773 7.61076 65.0493 6.82223 64.0202C5.85827 62.785 5.50058 59.8477 5.4988 59.7556Z" fill="#BC7546"/>
<path d="M6.51714 60.6762C7.44588 61.2967 8.2931 61.7522 9.2672 62.5464C9.83377 63.0099 10.4045 64.554 10.2866 65.3398C10.2969 65.6721 10.1198 65.8769 10.1196 65.8769C10.1161 65.8773 9.3423 63.7413 7.98782 62.715C6.67167 61.7267 5.57408 59.8898 5.50277 59.7607C5.56115 59.8243 6.03311 60.3522 6.51714 60.6762Z" fill="#F9C8A9"/>
<path d="M11.8025 59.4434C11.8018 59.4456 11.8024 59.447 11.8016 59.4493C11.7528 59.5845 11.1102 61.535 11.3228 62.9645C11.5378 64.4458 10.4036 66.4146 10.4049 66.4152C10.4016 66.4162 9.1347 64.4745 9.36983 63.2971C9.63871 61.8795 11.7334 59.5153 11.8025 59.4434Z" fill="#BC7546"/>
<path d="M11.8392 60.6726C12.0493 61.63 12.3331 62.42 12.4447 63.5245C12.5089 64.1689 11.7041 65.6042 10.9724 66.113C10.7102 66.3607 10.4052 66.4151 10.4052 66.4151C10.4039 66.4147 11.5379 64.4456 11.3232 62.9643C11.1106 61.5348 11.7533 59.5843 11.802 59.4492C11.7954 59.5279 11.7302 60.1732 11.8392 60.6726Z" fill="#F9C8A9"/>
<path d="M6.8656 64.616C6.86699 64.6181 6.86862 64.6188 6.87001 64.6208C6.95154 64.7469 8.19476 66.5378 9.59065 67.4767C11.028 68.4521 11.9686 70.553 11.9718 70.5525C11.9716 70.5531 9.39377 69.8142 8.52326 68.8167C7.46058 67.6199 6.8745 64.7076 6.8656 64.616Z" fill="#BC7546"/>
<path d="M7.95886 65.4973C8.93831 66.0832 9.82291 66.5074 10.8607 67.2648C11.4646 67.7069 12.1555 69.2252 12.0982 70.0118C12.1339 70.3425 11.9723 70.5525 11.9723 70.5525C11.9688 70.5529 11.0287 68.4521 9.59112 67.4767C8.19515 66.5377 6.95185 64.747 6.87048 64.6208C6.93374 64.6822 7.44827 65.1914 7.95886 65.4973Z" fill="#F9C8A9"/>
<path d="M13.1634 64.0876C13.1628 64.0898 13.1635 64.0913 13.1629 64.0936C13.1244 64.2297 12.6291 66.1943 12.9523 67.6107C13.2811 69.0787 12.2973 71.0783 12.2985 71.0789C12.2953 71.0799 10.8757 69.1894 11.0203 68.0089C11.1799 66.5879 13.0994 64.1616 13.1634 64.0876Z" fill="#BC7546"/>
<path d="M13.2935 65.3106C13.5776 66.2569 13.9225 67.034 14.119 68.1301C14.2329 68.7697 13.5368 70.2269 12.8431 70.7586C12.5993 71.0143 12.298 71.0788 12.298 71.0788C12.2969 71.0782 13.2807 69.0787 12.9519 67.6106C12.6286 66.1942 13.1241 64.2297 13.1625 64.0935C13.1617 64.1721 13.1462 64.8168 13.2935 65.3106Z" fill="#F9C8A9"/>
<path d="M9.61438 69.946C9.61639 69.9478 9.61848 69.948 9.62049 69.9498C9.74475 70.0526 11.5912 71.5012 13.2624 72.1003C14.9869 72.7241 16.6504 74.5539 16.654 74.553C16.6546 74.5531 13.9427 74.4028 12.7461 73.6317C11.294 72.7085 9.65611 70.0316 9.61438 69.946Z" fill="#BC7546"/>
<path d="M10.9801 70.5519C12.1281 70.8988 13.1253 71.1121 14.3892 71.615C15.1252 71.9086 16.3375 73.2265 16.5732 74.0016C16.7294 74.3142 16.6537 74.5533 16.6537 74.5533C16.6503 74.5542 14.9866 72.7243 13.2621 72.1005C11.5906 71.5013 9.74473 70.0527 9.62024 69.95C9.70308 69.9948 10.3813 70.3704 10.9801 70.5519Z" fill="#F9C8A9"/>
<path d="M14.042 74.738C14.0445 74.7395 14.0462 74.7394 14.0488 74.7407C14.196 74.8246 16.3554 75.9972 18.1324 76.3595C19.9678 76.7377 22.0341 78.3208 22.0371 78.3198C22.0371 78.3198 19.3596 78.5406 18.0035 77.9434C16.3614 77.2297 14.104 74.816 14.042 74.738Z" fill="#BC7546"/>
<path d="M15.5254 75.1458C16.7321 75.329 17.7582 75.4017 19.1142 75.7248C19.9041 75.9135 21.4065 77.0501 21.8245 77.785C22.0527 78.0728 22.0371 78.3198 22.0371 78.3198C22.0343 78.3207 19.9678 76.7376 18.1324 76.3594C16.3555 75.9971 14.1959 74.8245 14.0489 74.7407C14.1411 74.7735 14.8961 75.0496 15.5254 75.1458Z" fill="#F9C8A9"/>
<path d="M15.4213 68.0364C15.4215 68.0387 15.4229 68.0399 15.423 68.0422C15.435 68.1822 15.6775 70.1884 16.5031 71.4884C17.3503 72.8367 17.1559 74.9917 17.1584 74.9918C17.1568 74.9929 15.114 73.472 14.8161 72.299C14.4418 70.8891 15.3852 68.1217 15.4213 68.0364Z" fill="#BC7546"/>
<path d="M15.9891 69.1888C16.6032 70.0408 17.2134 70.7165 17.7997 71.7352C18.1403 72.3296 18.0143 73.8947 17.5552 74.5621C17.4192 74.8634 17.1582 74.9919 17.1582 74.9919C17.1558 74.9918 17.3502 72.8367 16.5028 71.4885C15.6772 70.1884 15.4348 68.1821 15.4228 68.0422C15.4501 68.1182 15.6692 68.7443 15.9891 69.1888Z" fill="#F9C8A9"/>
<path d="M18.9966 72.4814C18.9971 72.4834 18.9991 72.4842 18.9993 72.4862C19.0404 72.6053 19.6892 74.3067 20.6778 75.3286C21.6953 76.3892 21.9986 78.281 22.001 78.2808C22.0001 78.2814 19.9293 77.2164 19.4168 76.2399C18.7878 75.0668 18.9839 72.5596 18.9966 72.4814Z" fill="#BC7546"/>
<path d="M19.735 73.4051C20.4465 74.0639 21.1154 74.572 21.8374 75.3808C22.2574 75.8526 22.4903 77.224 22.2449 77.8592C22.1946 78.1371 22.0005 78.2806 22.0005 78.2806C21.9982 78.2809 21.6948 76.3889 20.6774 75.3284C19.6889 74.3066 19.04 72.6052 18.9989 72.4861C19.0391 72.5482 19.3643 73.061 19.735 73.4051Z" fill="#F9C8A9"/>
<path d="M31.5624 33.0068C31.5647 33.0085 31.5646 33.0102 31.5667 33.0119C31.6871 33.1199 33.3947 34.6904 34.0647 36.0566C34.7607 37.4718 36.924 38.8904 36.9243 38.8909C36.9281 38.8912 36.853 36.7243 35.9454 35.7303C34.8629 34.5309 31.6627 33.051 31.5624 33.0068Z" fill="#BC7546"/>
<path d="M32.2582 34.1384C32.6446 35.0772 32.869 35.8867 33.4301 36.9253C33.7573 37.5312 35.312 38.5746 36.2516 38.7999C36.6272 38.9398 36.9239 38.8909 36.9239 38.8909C36.9235 38.8904 34.7605 37.4719 34.0644 36.0566C33.3945 34.6903 31.687 33.1199 31.5663 33.012C31.6186 33.0815 32.0557 33.6487 32.2582 34.1384Z" fill="#F9C8A9"/>
<path d="M29.0243 37.4892C29.0271 37.4896 29.0286 37.4908 29.0313 37.4911C29.2005 37.5141 31.6306 37.8641 33.1797 38.6003C34.7849 39.3646 37.4393 39.3131 37.4393 39.3131C37.4415 39.3121 35.6653 37.6149 34.2467 37.3065C32.5429 36.9325 29.1316 37.4723 29.0243 37.4892Z" fill="#BC7546"/>
<path d="M30.3985 38.0316C31.4052 38.5841 32.1982 39.1173 33.4138 39.648C34.1229 39.9582 36.0517 39.9449 36.8933 39.6088C37.2698 39.5146 37.4393 39.3126 37.4393 39.3126C37.4393 39.3126 34.7848 39.3645 33.1798 38.6003C31.6309 37.864 29.2005 37.514 29.0314 37.491C29.1223 37.5194 29.8732 37.7441 30.3985 38.0316Z" fill="#F9C8A9"/>
<path d="M36.7958 36.0876C36.7975 36.0896 36.7973 36.0912 36.7991 36.0931C36.8998 36.2137 38.3097 37.9636 38.7144 39.386C39.1368 40.8592 41.0227 42.5205 41.0226 42.5209C41.0264 42.5215 41.379 40.3878 40.6638 39.301C39.8146 37.9907 36.8887 36.1432 36.7958 36.0876Z" fill="#BC7546"/>
<path d="M37.2752 37.2821C37.4813 38.2497 37.549 39.0706 37.9092 40.1585C38.1196 40.7931 39.4716 42.0097 40.3672 42.3478C40.7158 42.532 41.0222 42.521 41.0222 42.521C41.0225 42.5205 39.1363 40.8593 38.714 39.3861C38.3096 37.9637 36.8993 36.2139 36.7987 36.0933C36.8378 36.1678 37.1669 36.7774 37.2752 37.2821Z" fill="#F9C8A9"/>
<path d="M33.3887 40.1662C33.3912 40.1668 33.3928 40.1682 33.3954 40.1688C33.5601 40.2122 35.9256 40.8553 37.3322 41.77C38.789 42.7187 41.4542 42.9992 41.4546 42.999C41.4573 42.9985 40.014 41.1126 38.6527 40.6336C37.0185 40.0542 33.4985 40.1622 33.3887 40.1662Z" fill="#BC7546"/>
<path d="M34.6596 40.8678C35.5603 41.5342 36.2501 42.1556 37.3623 42.8271C38.0103 43.2192 39.9414 43.4458 40.8497 43.2212C41.2449 43.1758 41.4546 42.9988 41.4546 42.9988C41.4541 42.9991 38.7889 42.7186 37.3322 41.7699C35.9256 40.8553 33.5601 40.2121 33.3954 40.1687C33.481 40.2078 34.1891 40.5206 34.6596 40.8678Z" fill="#F9C8A9"/>
<path d="M41.6845 39.9895C41.6857 39.9917 41.685 39.9932 41.6861 39.9955C41.7505 40.1303 42.6208 42.0799 42.5886 43.5214C42.5609 45.0146 43.9134 46.9783 43.9123 46.979C43.9157 46.9797 44.9177 45.0043 44.5424 43.8241C44.1048 42.4023 41.7611 40.0605 41.6845 39.9895Z" fill="#BC7546"/>
<path d="M41.8007 41.2253C41.713 42.1911 41.5326 42.99 41.5592 44.1029C41.5756 44.7521 42.5405 46.1836 43.3197 46.684C43.607 46.9291 43.9125 46.9789 43.9125 46.9789C43.9134 46.9782 42.5608 45.0145 42.5886 43.5213C42.621 42.0798 41.7505 40.1302 41.6861 39.9954C41.7025 40.0743 41.8457 40.7216 41.8007 41.2253Z" fill="#F9C8A9"/>
<path d="M37.0917 43.2275C37.0941 43.2287 37.0952 43.2302 37.0975 43.2314C37.2473 43.3049 39.3919 44.3823 40.5023 45.535C41.6523 46.7295 44.1915 47.5221 44.192 47.5221C44.1956 47.5221 43.35 45.4298 42.1496 44.704C40.7112 43.8274 37.2008 43.2445 37.0917 43.2275Z" fill="#BC7546"/>
<path d="M38.1368 44.1481C38.8262 44.9629 39.3194 45.6939 40.2121 46.5556C40.7323 47.0585 42.5642 47.6536 43.5278 47.6167C43.931 47.6506 44.1921 47.5223 44.1918 47.5222C44.1911 47.5221 41.6521 46.7295 40.5021 45.535C39.3918 44.3822 37.2472 43.3049 37.0973 43.2314C37.1704 43.2855 37.7764 43.7234 38.1368 44.1481Z" fill="#F9C8A9"/>
<path d="M45.2164 44.3562C45.2172 44.3585 45.2161 44.3599 45.217 44.3622C45.2605 44.5014 45.8254 46.51 45.5634 47.9318C45.2989 49.4051 46.3384 51.4765 46.3371 51.477C46.3401 51.4779 47.6595 49.6193 47.4727 48.4174C47.2626 46.9702 45.2826 44.4335 45.2164 44.3562Z" fill="#BC7546"/>
<path d="M45.1375 45.5881C44.8966 46.5338 44.5896 47.3062 44.4399 48.4092C44.3535 49.0525 45.0921 50.5602 45.7914 51.1293C46.0398 51.3989 46.3373 51.4773 46.3373 51.4773C46.3388 51.4768 45.2992 49.4053 45.5635 47.9321C45.8255 46.5101 45.2604 44.5018 45.2172 44.3625C45.221 44.4418 45.2624 45.0947 45.1375 45.5881Z" fill="#F9C8A9"/>
<path d="M40.1035 47.1208C40.1059 47.1222 40.1062 47.1239 40.1087 47.1253C40.2475 47.2119 42.2267 48.4798 43.1553 49.7253C44.1174 51.0158 46.5294 52.0409 46.5302 52.0412C46.5339 52.0413 46.0234 49.8912 44.9361 49.0595C43.6351 48.0557 40.2101 47.1478 40.1035 47.1208Z" fill="#BC7546"/>
<path d="M41.0057 48.1301C41.5683 49.0012 41.9466 49.7708 42.7033 50.7079C43.1442 51.2548 44.8811 52.0168 45.8506 52.0719C46.2484 52.1437 46.53 52.0414 46.53 52.0414C46.5291 52.0412 44.117 51.016 43.155 49.7255C42.2266 48.48 40.2473 47.2122 40.1084 47.1255C40.173 47.1857 40.7118 47.676 41.0057 48.1301Z" fill="#F9C8A9"/>
<path d="M47.892 49.1218C47.8919 49.1241 47.8909 49.1254 47.8912 49.1278C47.8995 49.2699 47.9526 51.3129 47.3327 52.657C46.699 54.0505 47.1993 56.2356 47.1971 56.236C47.199 56.2369 48.9777 54.6323 49.0995 53.4324C49.2621 51.9889 47.9397 49.2071 47.892 49.1218Z" fill="#BC7546"/>
<path d="M47.5035 50.3075C47.0259 51.1896 46.527 51.8932 46.1005 52.9447C45.853 53.558 46.2017 55.1448 46.7472 55.8104C46.9238 56.1127 47.1976 56.236 47.1976 56.236C47.1999 56.2357 46.6995 54.0504 47.3332 52.6569C47.9532 51.3127 47.8999 49.2698 47.8917 49.1277C47.8758 49.2056 47.7519 49.8472 47.5035 50.3075Z" fill="#F9C8A9"/>
<path d="M42.131 51.0076C42.1329 51.0092 42.1329 51.0109 42.135 51.0126C42.2511 51.1187 43.8946 52.6651 44.4981 54.0262C45.1246 55.4362 47.2435 56.8164 47.2439 56.8169C47.2478 56.8174 47.2923 54.6389 46.4268 53.657C45.3948 52.4727 42.2301 51.0501 42.131 51.0076Z" fill="#BC7546"/>
<path d="M42.7729 52.1329C43.1118 53.0707 43.2934 53.8809 43.8046 54.9143C44.1029 55.5172 45.6236 56.5335 46.5658 56.7399C46.9396 56.8726 47.2441 56.817 47.2441 56.817C47.2436 56.8166 45.1246 55.4364 44.4981 54.0263C43.8947 52.6651 42.2512 51.1189 42.135 51.0127C42.184 51.0816 42.5953 51.644 42.7729 52.1329Z" fill="#F9C8A9"/>
<path d="M49.4169 54.0344C49.4165 54.0367 49.415 54.0378 49.4147 54.0401C49.3891 54.1801 48.9459 56.1839 48.0067 57.4073C47.0427 58.6763 47.0049 60.8927 47.0019 60.8928C47.003 60.8937 49.1493 59.5851 49.5637 58.4296C50.0784 57.0408 49.4446 54.1246 49.4169 54.0344Z" fill="#BC7546"/>
<path d="M48.745 55.1349C48.0587 55.926 47.3948 56.5397 46.7192 57.5057C46.3265 58.0693 46.2865 59.6757 46.662 60.4091C46.7626 60.7316 47.0021 60.893 47.0021 60.893C47.0052 60.8929 47.043 58.6765 48.0071 57.4075C48.9462 56.1842 49.3894 54.1802 49.4151 54.0403C49.3803 54.1138 49.1025 54.722 48.745 55.1349Z" fill="#F9C8A9"/>
<path d="M43.2607 55.021C43.2622 55.0229 43.2619 55.0245 43.2635 55.0266C43.3533 55.1475 44.6095 56.9046 44.876 58.3276C45.1554 59.8018 46.9067 61.469 46.9067 61.469C46.9103 61.4702 47.4861 59.3413 46.8694 58.2516C46.1388 56.9383 43.3494 55.077 43.2607 55.021Z" fill="#BC7546"/>
<path d="M43.6267 56.2177C43.7374 57.1863 43.7222 58.007 43.9777 59.0956C44.1268 59.7305 45.3796 60.9517 46.2572 61.2936C46.5934 61.4791 46.9066 61.4696 46.9066 61.4696C46.9068 61.4691 45.1555 59.8018 44.876 58.3277C44.6093 56.9044 43.3534 55.1477 43.2635 55.0266C43.2957 55.1013 43.5681 55.7126 43.6267 56.2177Z" fill="#F9C8A9"/>
<path d="M49.4871 59.7561C49.4858 59.7583 49.4842 59.759 49.483 59.7611C49.4118 59.8903 48.3141 61.7272 46.998 62.7154C45.6432 63.7416 44.8697 65.8777 44.8662 65.8773C44.8666 65.8778 47.3752 65.0498 48.1637 64.0207C49.1276 62.7855 49.4852 59.8482 49.4871 59.7561Z" fill="#BC7546"/>
<path d="M48.4687 60.6767C47.5399 61.2972 46.6926 61.7527 45.7186 62.5469C45.152 63.0104 44.5813 64.5545 44.6991 65.3402C44.6889 65.6726 44.866 65.8774 44.8661 65.8774C44.8696 65.8778 45.6433 63.7418 46.9979 62.7155C48.3141 61.7272 49.4116 59.8903 49.4829 59.7612C49.4246 59.8248 48.9526 60.3527 48.4687 60.6767Z" fill="#F9C8A9"/>
<path d="M43.1834 59.4436C43.1842 59.4458 43.1836 59.4472 43.1842 59.4496C43.233 59.5847 43.8757 61.5352 43.6631 62.9647C43.4481 64.446 44.5823 66.4149 44.581 66.4154C44.5842 66.4164 45.8512 64.4747 45.616 63.2974C45.3471 61.8797 43.2525 59.5155 43.1834 59.4436Z" fill="#BC7546"/>
<path d="M43.147 60.6729C42.9369 61.6302 42.6532 62.4203 42.5416 63.5247C42.4774 64.1691 43.2822 65.6045 44.0138 66.1133C44.276 66.361 44.581 66.4153 44.581 66.4153C44.5824 66.4149 43.4484 64.4458 43.6631 62.9646C43.8757 61.535 43.2331 59.5846 43.1843 59.4495C43.1909 59.5281 43.2561 60.1734 43.147 60.6729Z" fill="#F9C8A9"/>
<path d="M48.1213 64.616C48.1199 64.6181 48.1183 64.6188 48.1168 64.6208C48.0354 64.7469 46.7921 66.5378 45.3962 67.4767C43.9588 68.4521 43.0183 70.553 43.015 70.5525C43.0152 70.5531 45.5931 69.8142 46.4636 68.8167C47.5263 67.6199 48.1124 64.7076 48.1213 64.616Z" fill="#BC7546"/>
<path d="M47.029 65.4973C46.0495 66.0832 45.1649 66.5074 44.127 67.2648C43.5232 67.7069 42.8323 69.2252 42.8896 70.0118C42.8537 70.3425 43.0155 70.5525 43.0155 70.5525C43.019 70.5529 43.9591 68.4521 45.3966 67.4767C46.7925 66.5377 48.0359 64.747 48.1173 64.6208C48.054 64.6822 47.5395 65.1914 47.029 65.4973Z" fill="#F9C8A9"/>
<path d="M41.8234 64.0876C41.8239 64.0898 41.8232 64.0913 41.8238 64.0936C41.8623 64.2297 42.3577 66.1943 42.0343 67.6107C41.7056 69.0787 42.6893 71.0783 42.6881 71.0789C42.6913 71.0799 44.111 69.1894 43.9663 68.0089C43.8067 66.5879 41.8872 64.1616 41.8234 64.0876Z" fill="#BC7546"/>
<path d="M41.6924 65.3106C41.4085 66.2569 41.0635 67.034 40.867 68.1301C40.7531 68.7697 41.4493 70.2269 42.1429 70.7586C42.3867 71.0143 42.6879 71.0788 42.6879 71.0788C42.6891 71.0782 41.7053 69.0787 42.034 67.6106C42.3573 66.1942 41.8618 64.2297 41.8234 64.0935C41.8244 64.1721 41.8398 64.8168 41.6924 65.3106Z" fill="#F9C8A9"/>
<path d="M45.3726 69.946C45.3707 69.9478 45.3686 69.948 45.3666 69.9498C45.2423 70.0526 43.3958 71.5012 41.7246 72.1003C40.0001 72.7241 38.3366 74.5539 38.333 74.553C38.333 74.553 41.0443 74.4028 42.2408 73.6317C43.693 72.7085 45.3309 70.0316 45.3726 69.946Z" fill="#BC7546"/>
<path d="M44.0063 70.5519C42.8582 70.8988 41.861 71.1121 40.5971 71.615C39.8612 71.9086 38.6488 73.2265 38.413 74.0016C38.257 74.3142 38.3326 74.5533 38.3326 74.5533C38.336 74.5542 39.9996 72.7243 41.7242 72.1005C43.3958 71.5013 45.2417 70.0527 45.3662 69.95C45.2832 69.9948 44.6049 70.3704 44.0063 70.5519Z" fill="#F9C8A9"/>
<path d="M40.9444 74.738C40.9418 74.7395 40.9401 74.7394 40.9376 74.7407C40.7904 74.8246 38.631 75.9972 36.854 76.3595C35.0186 76.7377 32.9523 78.3208 32.9493 78.3198C32.9493 78.3198 35.6268 78.5406 36.9829 77.9434C38.625 77.2297 40.8825 74.816 40.9444 74.738Z" fill="#BC7546"/>
<path d="M39.4613 75.1458C38.2547 75.329 37.2286 75.4017 35.8725 75.7248C35.0826 75.9135 33.5802 77.0501 33.1622 77.785C32.9339 78.0728 32.9496 78.3198 32.9496 78.3198C32.9525 78.3207 35.0189 76.7376 36.8544 76.3594C38.6312 75.9971 40.7908 74.8245 40.9379 74.7407C40.8457 74.7735 40.0907 75.0496 39.4613 75.1458Z" fill="#F9C8A9"/>
<path d="M39.5664 68.0364C39.5663 68.0387 39.5648 68.0399 39.5647 68.0422C39.5528 68.1822 39.3103 70.1884 38.4846 71.4884C37.6374 72.8367 37.8318 74.9917 37.8294 74.9918C37.831 74.9929 39.8737 73.472 40.1716 72.299C40.5459 70.8891 39.6025 68.1217 39.5664 68.0364Z" fill="#BC7546"/>
<path d="M38.9984 69.1888C38.3843 70.0408 37.774 70.7165 37.1877 71.7352C36.8471 72.3296 36.9731 73.8947 37.4322 74.5621C37.5683 74.8634 37.8293 74.9919 37.8293 74.9919C37.8317 74.9918 37.6373 72.8367 38.4846 71.4885C39.3102 70.1884 39.5526 68.1821 39.5647 68.0422C39.5372 68.1182 39.3181 68.7443 38.9984 69.1888Z" fill="#F9C8A9"/>
<path d="M35.9906 72.4812C35.9902 72.4831 35.9882 72.4839 35.9879 72.486C35.9467 72.6051 35.298 74.3065 34.3094 75.3283C33.2919 76.3889 32.9886 78.2808 32.9862 78.2806C32.9871 78.2812 35.0579 77.2162 35.5704 76.2397C36.1994 75.0666 36.0033 72.5594 35.9906 72.4812Z" fill="#BC7546"/>
<path d="M35.2515 73.4048C34.54 74.0637 33.871 74.5718 33.1491 75.3805C32.729 75.8524 32.4961 77.2238 32.7416 77.859C32.7919 78.1369 32.986 78.2804 32.986 78.2804C32.9883 78.2806 33.2917 76.3886 34.3091 75.3282C35.2976 74.3063 35.9465 72.605 35.9876 72.4858C35.9473 72.5479 35.6222 73.0608 35.2515 73.4048Z" fill="#F9C8A9"/>
<path d="M32.0194 78.8168C32.0194 79.8731 30.0216 80.7293 27.5572 80.7293C25.0927 80.7293 23.0949 79.8731 23.0949 78.8168C23.0949 77.7606 25.0927 76.9043 27.5572 76.9043C30.0216 76.9044 32.0194 77.7606 32.0194 78.8168Z" fill="#BC7546"/>
<path d="M27.5575 80.395C25.1249 80.395 23.4297 79.5633 23.4297 78.8168C23.4297 78.0705 25.1249 77.2388 27.5575 77.2388C29.9902 77.2388 31.6854 78.0705 31.6854 78.8168C31.6854 79.5633 29.9901 80.395 27.5575 80.395Z" fill="#F9C8A9"/>
<path d="M27.0373 69.1526C24.173 69.1526 21.3338 68.6339 19.2484 67.7289L18.5322 67.4182V60.8578H20.6013L20.8848 61.0294C22.5031 62.0073 24.8278 62.6648 26.6691 62.6648C29.552 62.6648 29.552 61.2914 29.552 60.84C29.552 60.2406 29.552 59.6205 26.6087 59.6205C26.2852 59.6205 25.9564 59.626 25.6277 59.6319C25.2856 59.6374 24.9434 59.6432 24.6071 59.6432H23.4175V53.5304L25.9425 53.5362C26.8382 53.5362 28.7017 53.5362 29.1204 52.9367C29.182 52.8269 29.308 52.3829 29.1652 52.1C29.024 51.8208 28.5419 51.6155 27.8425 51.5366C27.5045 51.4981 27.1611 51.4787 26.822 51.4787C25.0323 51.4787 23.2252 52.0114 21.4518 53.0622L21.1713 53.2284H19.1359V46.7008L19.8817 46.4008C22.0618 45.5237 24.9557 45 27.6219 45C31.8134 45 34.8381 46.253 36.1404 48.5283C37.057 50.135 37.1314 52.1509 36.3397 53.9216C35.9313 54.8339 35.3289 55.6114 34.5831 56.2126C36.2374 57.2007 37.2958 58.8565 37.4474 60.8671C37.7507 64.885 34.5291 67.7069 31.4087 68.6276C30.2443 68.9708 28.7328 69.1526 27.0373 69.1526Z" fill="#BC7546"/>
<path d="M31.0714 67.4868C28.3718 68.2833 23.1689 68.1333 19.7218 66.6377V62.0475H20.2695C23.9084 64.2474 30.7411 65.0628 30.7411 60.8401C30.7411 58.0311 27.4576 58.4537 24.607 58.4537V54.72C26.8857 54.72 29.2183 54.8733 30.0954 53.6181C30.4405 53.1243 31.172 50.7152 27.9761 50.3545C25.4348 50.0656 23.0166 50.7526 20.8448 52.0389H20.3254V47.5045C24.6661 45.7584 32.9009 45.2634 35.1069 49.1189C36.6088 51.7502 35.1473 55.5475 31.7378 56.2779V56.4747C37.921 57.324 37.8675 65.4807 31.0714 67.4868Z" fill="#F9C8A9"/>
</svg>
