<svg width="56" height="86" viewBox="0 0 56 86" fill="none" xmlns="http://www.w3.org/2000/svg">
<path d="M45.2709 0L35.5624 27.1112H30.168L39.848 0.0220652V0H45.2709Z" fill="#9871F3"/>
<path d="M39.8478 0V0.0220652L30.1677 27.1112H24.841L34.5211 0.0220652V0H39.8478Z" fill="#F0F0F0"/>
<path d="M34.5213 0V0.0220652L24.8411 27.1112H19.3994L29.1079 0H34.5213Z" fill="#6F9DE2"/>
<path d="M39.355 27.515C40.0679 29.105 40.4639 30.8163 40.527 32.553C36.7114 30.6034 32.3879 29.504 27.8089 29.504C22.9744 29.504 18.4269 30.7296 14.46 32.8842C14.4805 31.034 14.8827 29.2058 15.6399 27.5149L15.9932 26.7278C16.3875 25.8461 17.2078 25.2294 18.1652 25.0953L19.2078 24.9486C24.7064 24.1789 30.2885 24.1789 35.7887 24.9486L36.8297 25.0953C37.7872 25.2294 38.6074 25.8461 39.0018 26.7278L39.355 27.515ZM36.5489 28.2894V27.2547C36.5489 26.955 36.306 26.7121 36.0064 26.7121H18.9885C18.6888 26.7121 18.4459 26.955 18.4459 27.2547V28.2894C18.4459 28.5906 18.6888 28.8336 18.9885 28.8336H36.0064C36.306 28.8336 36.5489 28.5907 36.5489 28.2894Z" fill="#C9C9C9"/>
<path d="M9.68945 0L19.3979 27.1112H24.7924L15.1124 0.0220652V0H9.68945Z" fill="#6F9DE2"/>
<path d="M15.1124 0V0.0220652L24.7924 27.1112H30.1191L20.4389 0.0220652V0H15.1124Z" fill="#F0F0F0"/>
<path d="M20.4385 0V0.0220652L30.1186 27.1112H35.5604L25.852 0H20.4385Z" fill="#9871F3"/>
<path d="M40.7172 32.553C49.7885 37.184 56 46.618 56 57.5031C56 72.9673 43.4634 85.5039 27.9993 85.5039C12.5351 85.5039 0 72.9673 0 57.5031C0 46.8735 5.92291 37.6271 14.6502 32.8841C18.6173 30.7295 23.1647 29.5039 27.9992 29.5039C32.5782 29.5039 36.9017 30.6033 40.7172 32.553Z" fill="#B8B8B8"/>
<path d="M27.9993 83.2724C21.1162 83.2724 14.6454 80.5919 9.77858 75.7247C4.91176 70.8576 2.23152 64.3863 2.23152 57.5031C2.23152 48.0473 7.39813 39.3654 15.715 34.8455C19.461 32.8109 23.7089 31.7354 27.9992 31.7354C32.1221 31.7354 36.0598 32.6792 39.7028 34.5407C43.8692 36.6677 47.3839 39.8918 49.8675 43.8647C52.4196 47.9474 53.7685 52.6635 53.7685 57.5032C53.7685 64.3863 51.088 70.8575 46.2208 75.7248C41.3536 80.592 34.8824 83.2724 27.9993 83.2724Z" fill="#C9C9C9"/>
<path d="M23.4243 33.0068C23.4221 33.0085 23.4221 33.0102 23.42 33.0119C23.2996 33.1199 21.592 34.6904 20.922 36.0566C20.226 37.4718 18.0627 38.8904 18.0625 38.8909C18.0587 38.8912 18.1338 36.7243 19.0413 35.7303C20.1237 34.5309 23.324 33.051 23.4243 33.0068Z" fill="#929292"/>
<path d="M22.7283 34.1383C22.3417 35.0772 22.1174 35.8867 21.5562 36.9253C21.229 37.5312 19.6743 38.5746 18.7347 38.7999C18.3592 38.9398 18.0623 38.891 18.0623 38.891C18.0627 38.8904 20.2259 37.4719 20.9219 36.0566C21.5919 34.6903 23.2992 33.1199 23.42 33.012C23.3678 33.0815 22.9307 33.6487 22.7283 34.1383Z" fill="#E6E6E6"/>
<path d="M25.9629 37.4892C25.9601 37.4896 25.9587 37.4908 25.9559 37.4911C25.7867 37.5141 23.3565 37.8641 21.8075 38.6003C20.2023 39.3646 17.5479 39.3131 17.5479 39.3131C17.5457 39.3121 19.3219 37.6149 20.7404 37.3065C22.4443 36.9325 25.8556 37.4723 25.9629 37.4892Z" fill="#929292"/>
<path d="M24.5888 38.0316C23.582 38.5841 22.7893 39.1173 21.5735 39.6479C20.8644 39.9581 18.9356 39.9449 18.0941 39.6088C17.7174 39.5146 17.548 39.3126 17.548 39.3126C17.548 39.3126 20.2025 39.3645 21.8076 38.6003C23.3565 37.864 25.7868 37.514 25.9561 37.491C25.865 37.5194 25.1142 37.7441 24.5888 38.0316Z" fill="#E6E6E6"/>
<path d="M18.1918 36.0876C18.1901 36.0896 18.1903 36.0912 18.1885 36.0931C18.0879 36.2137 16.6779 37.9636 16.2732 39.386C15.8508 40.8592 13.9649 42.5205 13.9651 42.5209C13.9612 42.5215 13.6086 40.3878 14.3238 39.301C15.1731 37.9907 18.0989 36.1432 18.1918 36.0876Z" fill="#929292"/>
<path d="M17.7116 37.2821C17.5056 38.2497 17.4379 39.0705 17.0777 40.1585C16.8672 40.7931 15.5152 42.0097 14.6196 42.3478C14.271 42.532 13.9646 42.521 13.9646 42.521C13.9643 42.5205 15.8505 40.8593 16.2728 39.3861C16.6772 37.9637 18.0875 36.2139 18.1881 36.0933C18.1491 36.1678 17.8199 36.7774 17.7116 37.2821Z" fill="#E6E6E6"/>
<path d="M21.5981 40.1662C21.5955 40.1668 21.594 40.1683 21.5914 40.1688C21.4267 40.2122 19.0612 40.8553 17.6546 41.77C16.1978 42.7187 13.5327 42.9992 13.5322 42.999C13.5294 42.9985 14.9728 41.1126 16.3341 40.6336C17.9683 40.0542 21.4883 40.1622 21.5981 40.1662Z" fill="#929292"/>
<path d="M20.3272 40.8678C19.4265 41.5342 18.7366 42.1556 17.6246 42.8271C16.9764 43.2192 15.0455 43.4458 14.1371 43.2212C13.7419 43.1758 13.5322 42.9988 13.5322 42.9988C13.5327 42.9991 16.1979 42.7186 17.6546 41.7699C19.0613 40.8553 21.4267 40.2121 21.5914 40.1687C21.5058 40.2078 20.7977 40.5206 20.3272 40.8678Z" fill="#E6E6E6"/>
<path d="M13.3022 39.9895C13.3009 39.9917 13.3016 39.9932 13.3005 39.9955C13.2363 40.1303 12.3659 42.0799 12.398 43.5214C12.4258 45.0146 11.0732 46.9783 11.0744 46.979C11.071 46.9797 10.069 45.0043 10.4443 43.8241C10.8818 42.4023 13.2255 40.0605 13.3022 39.9895Z" fill="#929292"/>
<path d="M13.186 41.2253C13.2736 42.1911 13.4541 42.99 13.4275 44.1028C13.411 44.7521 12.4462 46.1836 11.667 46.684C11.3797 46.9291 11.0742 46.9789 11.0742 46.9789C11.0733 46.9782 12.4259 45.0145 12.398 43.5213C12.3657 42.0798 13.2361 40.1302 13.3005 39.9954C13.2842 40.0743 13.141 40.7216 13.186 41.2253Z" fill="#E6E6E6"/>
<path d="M17.8945 43.2275C17.8921 43.2287 17.8911 43.2302 17.8887 43.2313C17.7388 43.3049 15.5943 44.3823 14.4838 45.535C13.3339 46.7295 10.7947 47.5221 10.7947 47.5221C10.7906 47.5221 11.6362 45.4298 12.8366 44.704C14.275 43.8274 17.7854 43.2445 17.8945 43.2275Z" fill="#929292"/>
<path d="M16.8497 44.1482C16.1603 44.963 15.6669 45.694 14.7743 46.5556C14.2541 47.0586 12.4222 47.6536 11.4586 47.6168C11.0554 47.6507 10.7944 47.5223 10.7945 47.5223C10.7951 47.5222 13.3343 46.7296 14.4842 45.5351C15.5946 44.3823 17.7392 43.3049 17.889 43.2314C17.816 43.2856 17.2101 43.7235 16.8497 44.1482Z" fill="#E6E6E6"/>
<path d="M9.76949 44.3562C9.76864 44.3585 9.76972 44.3599 9.76879 44.3622C9.72528 44.5014 9.16049 46.51 9.42241 47.9318C9.68687 49.4051 8.64735 51.4765 8.64867 51.477C8.64565 51.4779 7.32625 49.6193 7.51307 48.4174C7.72334 46.9702 9.70322 44.4335 9.76949 44.3562Z" fill="#929292"/>
<path d="M9.8479 45.588C10.0888 46.5336 10.3959 47.3061 10.5456 48.409C10.6319 49.0524 9.89336 50.56 9.19402 51.1291C8.94565 51.3988 8.64827 51.4771 8.64827 51.4771C8.64665 51.4766 9.68624 49.4051 9.42193 47.9319C9.15994 46.5099 9.72504 44.5015 9.76832 44.3623C9.76445 44.4416 9.72309 45.0946 9.8479 45.588Z" fill="#E6E6E6"/>
<path d="M14.8826 47.1208C14.8802 47.1222 14.8799 47.1239 14.8774 47.1253C14.7386 47.2119 12.7594 48.4798 11.8309 49.7253C10.8688 51.0158 8.45679 52.0409 8.45594 52.0412C8.45222 52.0413 8.96282 49.8912 10.0501 49.0595C11.3511 48.0557 14.776 47.1478 14.8826 47.1208Z" fill="#929292"/>
<path d="M13.9801 48.13C13.4176 49.0012 13.0392 49.7707 12.2825 50.7079C11.8416 51.2548 10.1047 52.0168 9.13528 52.0719C8.73757 52.1437 8.45599 52.0415 8.45599 52.0415C8.45677 52.0412 10.8689 51.016 11.8309 49.7255C12.7593 48.48 14.7386 47.2122 14.8775 47.1255C14.8129 47.1856 14.2741 47.6759 13.9801 48.13Z" fill="#E6E6E6"/>
<path d="M7.09422 49.1218C7.0943 49.1241 7.0953 49.1254 7.09507 49.1278C7.08678 49.2699 7.03359 51.3129 7.65342 52.657C8.28719 54.0505 7.78698 56.2356 7.78915 56.236C7.78722 56.2369 6.00855 54.6323 5.88669 53.4323C5.72419 51.9889 7.04653 49.2071 7.09422 49.1218Z" fill="#929292"/>
<path d="M7.4832 50.3075C7.96073 51.1896 8.45971 51.8932 8.88622 52.9447C9.13366 53.558 8.78495 55.1448 8.23953 55.8104C8.06301 56.1127 7.78918 56.2359 7.78918 56.2359C7.78685 56.2357 8.28737 54.0504 7.65345 52.6569C7.03354 51.3127 7.08681 49.2698 7.09509 49.1277C7.11089 49.2056 7.23468 49.8472 7.4832 50.3075Z" fill="#E6E6E6"/>
<path d="M12.8555 51.0076C12.8535 51.0092 12.8535 51.0109 12.8514 51.0126C12.7353 51.1187 11.0918 52.6651 10.4883 54.0262C9.86177 55.4362 7.743 56.8164 7.74253 56.8169C7.73866 56.8174 7.69416 54.6389 8.55972 53.657C9.59166 52.4727 12.7564 51.0501 12.8555 51.0076Z" fill="#929292"/>
<path d="M12.2131 52.1329C11.8742 53.0707 11.6927 53.8809 11.1814 54.9143C10.8831 55.5172 9.36234 56.5335 8.42013 56.7399C8.04643 56.8726 7.74185 56.817 7.742 56.817C7.74224 56.8166 9.86125 55.4364 10.4878 54.0263C11.0912 52.6651 12.7347 51.1189 12.8509 51.0127C12.802 51.0816 12.3907 51.644 12.2131 52.1329Z" fill="#E6E6E6"/>
<path d="M5.56933 54.0344C5.5698 54.0368 5.57127 54.0378 5.57158 54.0402C5.59721 54.1801 6.04037 56.184 6.97956 57.4074C7.9436 58.6764 7.98138 60.8927 7.9844 60.8929C7.98324 60.8937 5.8369 59.5852 5.42254 58.4297C4.90785 57.0409 5.54162 54.1247 5.56933 54.0344Z" fill="#929292"/>
<path d="M6.2423 55.1349C6.92863 55.9259 7.59259 56.5397 8.26816 57.5057C8.66084 58.0693 8.70087 59.6757 8.32538 60.4091C8.22473 60.7315 7.98519 60.893 7.98519 60.893C7.98217 60.8929 7.94424 58.6765 6.98027 57.4075C6.04108 56.1842 5.59792 54.1802 5.5723 54.0403C5.60698 54.1138 5.88477 54.722 6.2423 55.1349Z" fill="#E6E6E6"/>
<path d="M11.7267 55.0208C11.7252 55.0227 11.7254 55.0243 11.7238 55.0263C11.6341 55.1472 10.3779 56.9044 10.1114 58.3273C9.83208 59.8016 8.08074 61.4687 8.0809 61.4693C8.07711 61.47 7.5014 59.3411 8.11806 58.2514C8.8486 56.9381 11.638 55.0767 11.7267 55.0208Z" fill="#929292"/>
<path d="M11.3611 56.2177C11.2504 57.1863 11.2656 58.007 11.0101 59.0956C10.861 59.7305 9.60813 60.9517 8.73049 61.2936C8.39433 61.479 8.08116 61.4696 8.08116 61.4696C8.08093 61.4691 9.83226 59.8018 10.1118 58.3276C10.3784 56.9044 11.6344 55.1477 11.7242 55.0266C11.692 55.1013 11.4196 55.7126 11.3611 56.2177Z" fill="#E6E6E6"/>
<path d="M5.49892 59.7556C5.50023 59.7577 5.50186 59.7586 5.50302 59.7606C5.57425 59.8898 6.67191 61.7266 7.98806 62.7149C9.34284 63.7412 10.1163 65.8772 10.1198 65.8768C10.1194 65.8773 7.61087 65.0493 6.82235 64.0202C5.85846 62.7849 5.50077 59.8477 5.49892 59.7556Z" fill="#929292"/>
<path d="M6.51739 60.6762C7.44613 61.2968 8.29334 61.7522 9.26745 62.5464C9.83401 63.0099 10.4048 64.554 10.2868 65.3398C10.2971 65.6721 10.1201 65.8769 10.1201 65.8769C10.1164 65.8773 9.34261 63.7413 7.98806 62.715C6.67191 61.7267 5.57433 59.8898 5.50302 59.7607C5.5614 59.8243 6.03343 60.3521 6.51739 60.6762Z" fill="#E6E6E6"/>
<path d="M11.8026 59.4434C11.8019 59.4456 11.8025 59.447 11.8018 59.4493C11.753 59.5845 11.1103 61.535 11.3229 62.9645C11.5379 64.4457 10.4037 66.4146 10.405 66.4152C10.4018 66.4162 9.13488 64.4745 9.37001 63.2971C9.63882 61.8795 11.7336 59.5153 11.8026 59.4434Z" fill="#929292"/>
<path d="M11.8393 60.6726C12.0493 61.63 12.3332 62.42 12.4447 63.5245C12.509 64.1689 11.7041 65.6042 10.9725 66.113C10.7103 66.3607 10.4052 66.4151 10.4052 66.4151C10.404 66.4147 11.538 64.4456 11.3232 62.9643C11.1106 61.5348 11.7534 59.5843 11.8021 59.4492C11.7954 59.5279 11.7302 60.1732 11.8393 60.6726Z" fill="#E6E6E6"/>
<path d="M6.86603 64.616C6.86742 64.6181 6.86906 64.6188 6.87053 64.6208C6.95205 64.7469 8.19526 66.5378 9.59116 67.4767C11.0285 68.4521 11.9691 70.553 11.9723 70.5525C11.9722 70.5531 9.39429 69.8141 8.52377 68.8167C7.46101 67.6199 6.87493 64.7076 6.86603 64.616Z" fill="#929292"/>
<path d="M7.9592 65.4973C8.93865 66.0832 9.82326 66.5074 10.8611 67.2648C11.465 67.7069 12.1559 69.2252 12.0986 70.0118C12.1344 70.3425 11.9727 70.5525 11.9727 70.5525C11.9692 70.5529 11.0291 68.4521 9.59154 67.4767C8.19557 66.5377 6.95228 64.747 6.87091 64.6208C6.93409 64.6822 7.44861 65.1914 7.9592 65.4973Z" fill="#E6E6E6"/>
<path d="M13.1642 64.0876C13.1636 64.0898 13.1642 64.0913 13.1637 64.0935C13.1252 64.2297 12.6299 66.1943 12.9531 67.6107C13.2818 69.0787 12.2981 71.0783 12.2993 71.0789C12.2961 71.0799 10.8765 69.1894 11.0211 68.0089C11.1808 66.5879 13.1003 64.1616 13.1642 64.0876Z" fill="#929292"/>
<path d="M13.2945 65.3107C13.5786 66.257 13.9235 67.0341 14.1201 68.1302C14.2339 68.7698 13.5378 70.227 12.8442 70.7587C12.6004 71.0144 12.2991 71.0789 12.2991 71.0789C12.2979 71.0783 13.2817 69.0788 12.953 67.6107C12.6296 66.1943 13.1251 64.2298 13.1635 64.0935C13.1628 64.1721 13.1472 64.8169 13.2945 65.3107Z" fill="#E6E6E6"/>
<path d="M9.61507 69.946C9.61708 69.9478 9.61916 69.948 9.62117 69.9498C9.74543 70.0526 11.5919 71.5012 13.263 72.1003C14.9876 72.7241 16.6511 74.5539 16.6548 74.553C16.6553 74.5531 13.9434 74.4028 12.7468 73.6317C11.2947 72.7085 9.65672 70.0315 9.61507 69.946Z" fill="#929292"/>
<path d="M10.9808 70.5517C12.1289 70.8986 13.1261 71.1119 14.39 71.6148C15.1259 71.9084 16.3383 73.2262 16.574 74.0014C16.7302 74.3138 16.6545 74.553 16.6545 74.553C16.6511 74.5538 14.9874 72.7241 13.2628 72.1003C11.5913 71.5011 9.74534 70.0524 9.62093 69.9497C9.70377 69.9945 10.3821 70.3702 10.9808 70.5517Z" fill="#E6E6E6"/>
<path d="M14.0428 74.738C14.0453 74.7395 14.047 74.7394 14.0496 74.7408C14.1968 74.8247 16.3561 75.9973 18.1332 76.3595C19.9686 76.7377 22.0349 78.3209 22.0379 78.3198C22.0379 78.3198 19.3604 78.5407 18.0043 77.9435C16.3622 77.2297 14.1047 74.8161 14.0428 74.738Z" fill="#929292"/>
<path d="M15.5262 75.1458C16.7329 75.329 17.7589 75.4017 19.1149 75.7248C19.9049 75.9135 21.4072 77.05 21.8252 77.785C22.0534 78.0728 22.0379 78.3197 22.0379 78.3197C22.035 78.3207 19.9685 76.7376 18.1332 76.3594C16.3563 75.9971 14.1966 74.8245 14.0496 74.7407C14.1418 74.7735 14.8968 75.0496 15.5262 75.1458Z" fill="#E6E6E6"/>
<path d="M15.4205 68.0361C15.4205 68.0385 15.422 68.0396 15.4222 68.0419C15.4341 68.182 15.6766 70.1882 16.5022 71.4882C17.3494 72.8365 17.155 74.9915 17.1576 74.9916C17.1559 74.9927 15.1132 73.4718 14.8153 72.2988C14.4409 70.8889 15.3844 68.1215 15.4205 68.0361Z" fill="#929292"/>
<path d="M15.9883 69.1887C16.6024 70.0405 17.2126 70.7163 17.7988 71.735C18.1394 72.3294 18.0134 73.8945 17.5543 74.5619C17.4183 74.8631 17.1573 74.9917 17.1573 74.9917C17.1549 74.9916 17.3493 72.8366 16.502 71.4883C15.6763 70.1882 15.434 68.182 15.4219 68.042C15.4493 68.118 15.6684 68.7441 15.9883 69.1887Z" fill="#E6E6E6"/>
<path d="M18.9966 72.4814C18.9972 72.4834 18.9991 72.4842 18.9993 72.4862C19.0405 72.6053 19.6892 74.3067 20.6778 75.3286C21.6954 76.3892 21.9986 78.281 22.001 78.2808C22.0002 78.2814 19.9292 77.2164 19.4169 76.2399C18.7878 75.0668 18.9839 72.5596 18.9966 72.4814Z" fill="#929292"/>
<path d="M19.735 73.405C20.4465 74.0638 21.1155 74.572 21.8375 75.3808C22.2575 75.8526 22.4904 77.224 22.2449 77.8592C22.1946 78.1371 22.0005 78.2806 22.0005 78.2806C21.9983 78.2809 21.6949 76.3889 20.6774 75.3284C19.689 74.3066 19.04 72.6052 18.9989 72.4861C19.0392 72.5482 19.3643 73.061 19.735 73.405Z" fill="#E6E6E6"/>
<path d="M31.5615 33.0068C31.5638 33.0085 31.5637 33.0102 31.5658 33.0119C31.6862 33.1199 33.3938 34.6904 34.0638 36.0566C34.7599 37.4718 36.9231 38.8904 36.9234 38.8909C36.9272 38.8912 36.8521 36.7243 35.9445 35.7303C34.8621 34.5309 31.6618 33.051 31.5615 33.0068Z" fill="#929292"/>
<path d="M32.2572 34.1383C32.6437 35.0772 32.868 35.8867 33.4292 36.9253C33.7564 37.5312 35.3111 38.5746 36.2507 38.7999C36.6263 38.9398 36.923 38.8909 36.923 38.8909C36.9226 38.8904 34.7596 37.4719 34.0635 36.0566C33.3936 34.6903 31.6861 33.1199 31.5654 33.012C31.6177 33.0815 32.0547 33.6487 32.2572 34.1383Z" fill="#E6E6E6"/>
<path d="M29.0225 37.4892C29.0252 37.4896 29.0267 37.4908 29.0294 37.4911C29.1986 37.5141 31.6288 37.8641 33.1779 38.6003C34.783 39.3646 37.4375 39.3131 37.4375 39.3131C37.4396 39.3121 35.6635 37.6149 34.2449 37.3065C32.5411 36.9325 29.1298 37.4723 29.0225 37.4892Z" fill="#929292"/>
<path d="M30.3966 38.0316C31.4033 38.5841 32.1962 39.1173 33.4119 39.6479C34.121 39.9581 36.0498 39.9449 36.8913 39.6088C37.2679 39.5146 37.4374 39.3126 37.4374 39.3126C37.4374 39.3126 34.7829 39.3645 33.1778 38.6003C31.6289 37.864 29.1985 37.514 29.0293 37.491C29.1205 37.5194 29.8712 37.7441 30.3966 38.0316Z" fill="#E6E6E6"/>
<path d="M36.7948 36.0876C36.7965 36.0896 36.7964 36.0912 36.7981 36.0931C36.8988 36.2137 38.3088 37.9636 38.7135 39.386C39.1359 40.8592 41.0218 42.5205 41.0216 42.5209C41.0255 42.5215 41.378 40.3878 40.6628 39.301C39.8137 37.9907 36.8877 36.1432 36.7948 36.0876Z" fill="#929292"/>
<path d="M37.2743 37.2821C37.4803 38.2497 37.548 39.0705 37.9082 40.1585C38.1186 40.7931 39.4706 42.0097 40.3662 42.3478C40.7148 42.532 41.0212 42.521 41.0212 42.521C41.0215 42.5205 39.1353 40.8593 38.713 39.3861C38.3086 37.9637 36.8983 36.2139 36.7977 36.0933C36.8367 36.1678 37.1659 36.7774 37.2743 37.2821Z" fill="#E6E6E6"/>
<path d="M33.3877 40.1662C33.3902 40.1668 33.3917 40.1683 33.3944 40.1688C33.5591 40.2122 35.9245 40.8553 37.3312 41.77C38.7879 42.7187 41.4531 42.9992 41.4536 42.999C41.4562 42.9985 40.013 41.1126 38.6517 40.6336C37.0176 40.0542 33.4975 40.1622 33.3877 40.1662Z" fill="#929292"/>
<path d="M34.6586 40.8678C35.5593 41.5342 36.2491 42.1556 37.3612 42.8271C38.0093 43.2192 39.9404 43.4458 40.8487 43.2212C41.2439 43.1758 41.4536 42.9988 41.4536 42.9988C41.4531 42.9991 38.7879 42.7186 37.3312 41.7699C35.9246 40.8553 33.5591 40.2121 33.3944 40.1687C33.4801 40.2078 34.1882 40.5206 34.6586 40.8678Z" fill="#E6E6E6"/>
<path d="M41.6837 39.9895C41.6849 39.9917 41.6842 39.9932 41.6853 39.9955C41.7496 40.1303 42.62 42.0799 42.5878 43.5214C42.5601 45.0146 43.9126 46.9783 43.9114 46.979C43.9148 46.9797 44.9168 45.0043 44.5416 43.8241C44.1039 42.4023 41.7602 40.0605 41.6837 39.9895Z" fill="#929292"/>
<path d="M41.7998 41.2253C41.7121 42.1911 41.5317 42.99 41.5583 44.1028C41.5747 44.7521 42.5395 46.1836 43.3188 46.684C43.6061 46.9291 43.9116 46.9789 43.9116 46.9789C43.9124 46.9782 42.5599 45.0145 42.5877 43.5213C42.62 42.0798 41.7496 40.1302 41.6852 39.9954C41.7016 40.0743 41.8448 40.7216 41.7998 41.2253Z" fill="#E6E6E6"/>
<path d="M37.0908 43.2275C37.0932 43.2287 37.0943 43.2302 37.0966 43.2313C37.2464 43.3049 39.391 44.3823 40.5014 45.535C41.6514 46.7295 44.1906 47.5221 44.191 47.5221C44.1946 47.5221 43.349 45.4298 42.1487 44.704C40.7103 43.8274 37.1999 43.2445 37.0908 43.2275Z" fill="#929292"/>
<path d="M38.136 44.1482C38.8254 44.963 39.3187 45.694 40.2113 46.5556C40.7315 47.0586 42.5635 47.6536 43.527 47.6168C43.9302 47.6507 44.1913 47.5223 44.1911 47.5223C44.1905 47.5222 41.6514 46.7296 40.5014 45.5351C39.3911 44.3823 37.2465 43.3049 37.0966 43.2314C37.1696 43.2856 37.7755 43.7235 38.136 44.1482Z" fill="#E6E6E6"/>
<path d="M45.2159 44.3562C45.2167 44.3585 45.2157 44.3599 45.2166 44.3622C45.2601 44.5014 45.825 46.51 45.563 47.9318C45.2985 49.4051 46.338 51.4765 46.3367 51.477C46.3397 51.4779 47.6591 49.6193 47.4723 48.4174C47.262 46.9702 45.2821 44.4335 45.2159 44.3562Z" fill="#929292"/>
<path d="M45.137 45.588C44.8961 46.5336 44.5891 47.3061 44.4394 48.409C44.3531 49.0524 45.0916 50.56 45.7909 51.1291C46.0393 51.3988 46.3367 51.4771 46.3367 51.4771C46.3383 51.4766 45.2987 49.4051 45.563 47.9319C45.825 46.5099 45.2599 44.5015 45.2167 44.3623C45.2205 44.4416 45.2619 45.0946 45.137 45.588Z" fill="#E6E6E6"/>
<path d="M40.1029 47.1208C40.1053 47.1222 40.1056 47.1239 40.1081 47.1253C40.2469 47.2119 42.2261 48.4798 43.1547 49.7253C44.1168 51.0158 46.5288 52.0409 46.5296 52.0412C46.5333 52.0413 46.0227 49.8912 44.9354 49.0595C43.6344 48.0557 40.2094 47.1478 40.1029 47.1208Z" fill="#929292"/>
<path d="M41.0061 48.13C41.5686 49.0012 41.947 49.7707 42.7037 50.7079C43.1446 51.2548 44.8814 52.0168 45.851 52.0719C46.2487 52.1437 46.5304 52.0414 46.5304 52.0414C46.5294 52.0412 44.1174 51.016 43.1554 49.7255C42.2269 48.48 40.2477 47.2122 40.1088 47.1255C40.1733 47.1856 40.7121 47.6759 41.0061 48.13Z" fill="#E6E6E6"/>
<path d="M47.8921 49.1216C47.892 49.1239 47.891 49.1251 47.8912 49.1275C47.8995 49.2696 47.9527 51.3127 47.3328 52.6568C46.6991 54.0503 47.1993 56.2354 47.197 56.2358C47.1991 56.2367 48.9776 54.6321 49.0995 53.4321C49.2621 51.9886 47.9397 49.2069 47.8921 49.1216Z" fill="#929292"/>
<path d="M47.5031 50.3073C47.0256 51.1894 46.5266 51.893 46.1002 52.9444C45.8527 53.5578 46.2014 55.1446 46.7469 55.8102C46.9234 56.1125 47.1972 56.2357 47.1972 56.2357C47.1995 56.2354 46.699 54.0502 47.3329 52.6567C47.9529 51.3125 47.8996 49.2696 47.8913 49.1274C47.8754 49.2054 47.7516 49.8469 47.5031 50.3073Z" fill="#E6E6E6"/>
<path d="M42.1307 51.0076C42.1325 51.0092 42.1326 51.0109 42.1347 51.0126C42.2508 51.1187 43.8943 52.6651 44.4978 54.0262C45.1243 55.4362 47.2432 56.8164 47.2436 56.8169C47.2475 56.8174 47.292 54.6389 46.4264 53.657C45.3944 52.4727 42.2297 51.0501 42.1307 51.0076Z" fill="#929292"/>
<path d="M42.7723 52.1329C43.1112 53.0707 43.2927 53.8809 43.804 54.9143C44.1023 55.5172 45.6231 56.5335 46.5652 56.7399C46.939 56.8726 47.2435 56.817 47.2435 56.817C47.243 56.8166 45.1241 55.4364 44.4975 54.0263C43.8942 52.6651 42.2506 51.1189 42.1344 51.0127C42.1835 51.0816 42.5948 51.644 42.7723 52.1329Z" fill="#E6E6E6"/>
<path d="M49.4161 54.0342C49.4156 54.0366 49.4142 54.0376 49.4138 54.0399C49.3882 54.1799 48.9451 56.1838 48.0059 57.4072C47.0418 58.6762 47.004 60.8925 47.001 60.8926C47.0022 60.8935 49.1485 59.5849 49.5629 58.4294C50.0776 57.0407 49.4439 54.1245 49.4161 54.0342Z" fill="#929292"/>
<path d="M48.7442 55.1347C48.0579 55.9257 47.394 56.5394 46.7184 57.5055C46.3257 58.0691 46.2857 59.6755 46.6612 60.4088C46.7618 60.7313 47.0013 60.8928 47.0013 60.8928C47.0044 60.8927 47.0423 58.6763 48.0063 57.4073C48.9455 56.184 49.3886 54.1799 49.4143 54.04C49.3796 54.1136 49.1017 54.7218 48.7442 55.1347Z" fill="#E6E6E6"/>
<path d="M43.2588 55.0208C43.2603 55.0227 43.26 55.0243 43.2616 55.0263C43.3514 55.1472 44.6076 56.9044 44.8741 58.3273C45.1535 59.8016 46.9048 61.4687 46.9047 61.4693C46.9084 61.47 47.4842 59.3411 46.8675 58.2514C46.1368 56.9381 43.3475 55.0767 43.2588 55.0208Z" fill="#929292"/>
<path d="M43.6248 56.2175C43.7355 57.186 43.7202 58.0068 43.9757 59.0954C44.1248 59.7303 45.3776 60.9514 46.2553 61.2933C46.5914 61.4788 46.9046 61.4693 46.9046 61.4693C46.9049 61.4688 45.1535 59.8016 44.874 58.3273C44.6074 56.9042 43.3514 55.1475 43.2615 55.0264C43.2938 55.1011 43.5662 55.7123 43.6248 56.2175Z" fill="#E6E6E6"/>
<path d="M49.4858 59.7556C49.4845 59.7577 49.4829 59.7586 49.4817 59.7606C49.4105 59.8898 48.3128 61.7266 46.9967 62.7149C45.6419 63.7412 44.8684 65.8772 44.8649 65.8768C44.8653 65.8773 47.3739 65.0493 48.1623 64.0202C49.1263 62.7849 49.4839 59.8477 49.4858 59.7556Z" fill="#929292"/>
<path d="M48.4673 60.6762C47.5385 61.2968 46.6913 61.7522 45.7172 62.5464C45.1507 63.0099 44.58 64.554 44.6978 65.3398C44.6876 65.6721 44.8647 65.8769 44.8648 65.8769C44.8683 65.8773 45.642 63.7413 46.9966 62.715C48.3127 61.7267 49.4103 59.8898 49.4817 59.7607C49.4232 59.8243 48.9513 60.3521 48.4673 60.6762Z" fill="#E6E6E6"/>
<path d="M43.1824 59.4434C43.1832 59.4456 43.1826 59.447 43.1833 59.4493C43.232 59.5845 43.8747 61.535 43.6621 62.9645C43.4471 64.4457 44.5813 66.4146 44.58 66.4152C44.5833 66.4162 45.8502 64.4745 45.615 63.2971C45.3462 61.8795 43.2515 59.5153 43.1824 59.4434Z" fill="#929292"/>
<path d="M43.146 60.6726C42.9359 61.63 42.6522 62.42 42.5406 63.5245C42.4764 64.1689 43.2812 65.6042 44.0128 66.113C44.2749 66.3607 44.58 66.4151 44.58 66.4151C44.5814 66.4147 43.4473 64.4456 43.6621 62.9643C43.8747 61.5348 43.2321 59.5843 43.1833 59.4492C43.1899 59.5279 43.2551 60.1732 43.146 60.6726Z" fill="#E6E6E6"/>
<path d="M48.1203 64.616C48.1189 64.6181 48.1172 64.6188 48.1157 64.6208C48.0342 64.7469 46.791 66.5378 45.395 67.4767C43.9576 68.4521 43.0172 70.553 43.0139 70.5525C43.0141 70.5531 45.5919 69.8141 46.4624 68.8167C47.5253 67.6199 48.1114 64.7076 48.1203 64.616Z" fill="#929292"/>
<path d="M47.0278 65.4973C46.0484 66.0832 45.1638 66.5074 44.1259 67.2648C43.5221 67.7069 42.8312 69.2252 42.8885 70.0118C42.8526 70.3425 43.0143 70.5525 43.0143 70.5525C43.0177 70.5529 43.9579 68.4521 45.3954 67.4767C46.7913 66.5377 48.0347 64.747 48.116 64.6208C48.0529 64.6822 47.5384 65.1914 47.0278 65.4973Z" fill="#E6E6E6"/>
<path d="M41.8223 64.0876C41.8228 64.0898 41.8222 64.0913 41.8227 64.0935C41.8612 64.2297 42.3565 66.1943 42.0333 67.6107C41.7045 69.0787 42.6883 71.0783 42.6871 71.0789C42.6903 71.0799 44.11 69.1894 43.9653 68.0089C43.8057 66.5879 41.8862 64.1616 41.8223 64.0876Z" fill="#929292"/>
<path d="M41.6914 65.3107C41.4074 66.257 41.0625 67.0341 40.8659 68.1302C40.752 68.7698 41.4482 70.227 42.1418 70.7587C42.3856 71.0144 42.6869 71.0789 42.6869 71.0789C42.6881 71.0783 41.7043 69.0788 42.033 67.6107C42.3564 66.1943 41.8609 64.2298 41.8224 64.0935C41.8232 64.1721 41.8387 64.8169 41.6914 65.3107Z" fill="#E6E6E6"/>
<path d="M45.3715 69.946C45.3696 69.9478 45.3675 69.948 45.3654 69.9498C45.2412 70.0526 43.3947 71.5012 41.7235 72.1003C39.999 72.7241 38.3355 74.5539 38.3319 74.553C38.3319 74.553 41.0432 74.4028 42.2397 73.6317C43.6919 72.7085 45.3298 70.0315 45.3715 69.946Z" fill="#929292"/>
<path d="M44.0053 70.5519C42.8571 70.8988 41.86 71.1121 40.596 71.615C39.8602 71.9086 38.6477 73.2265 38.412 74.0016C38.2559 74.3141 38.3316 74.5532 38.3316 74.5532C38.335 74.5541 39.9986 72.7243 41.7232 72.1005C43.3947 71.5013 45.2407 70.0527 45.3651 69.95C45.2822 69.9948 44.6039 70.3704 44.0053 70.5519Z" fill="#E6E6E6"/>
<path d="M40.9435 74.7378C40.9409 74.7393 40.9393 74.7392 40.9366 74.7406C40.7895 74.8244 38.6301 75.997 36.8531 76.3593C35.0177 76.7375 32.9514 78.3207 32.9484 78.3196C32.9484 78.3196 35.6258 78.5405 36.9819 77.9432C38.6241 77.2295 40.8815 74.8158 40.9435 74.7378Z" fill="#929292"/>
<path d="M39.4605 75.1458C38.2538 75.329 37.2278 75.4017 35.8718 75.7248C35.0818 75.9135 33.5795 77.05 33.1615 77.785C32.9333 78.0728 32.9488 78.3197 32.9488 78.3197C32.9517 78.3207 35.0181 76.7376 36.8535 76.3594C38.6304 75.9971 40.79 74.8245 40.9371 74.7407C40.8449 74.7735 40.0898 75.0496 39.4605 75.1458Z" fill="#E6E6E6"/>
<path d="M39.5645 68.0361C39.5644 68.0385 39.5629 68.0396 39.5629 68.0419C39.5509 68.182 39.3084 70.1882 38.4828 71.4882C37.6356 72.8365 37.83 74.9915 37.8275 74.9916C37.8291 74.9927 39.8718 73.4718 40.1697 72.2988C40.544 70.8889 39.6006 68.1215 39.5645 68.0361Z" fill="#929292"/>
<path d="M38.9964 69.1887C38.3823 70.0405 37.7721 70.7163 37.1858 71.735C36.8453 72.3294 36.9712 73.8945 37.4303 74.5619C37.5664 74.8631 37.8274 74.9917 37.8274 74.9917C37.8298 74.9916 37.6354 72.8366 38.4827 71.4883C39.3083 70.1882 39.5507 68.182 39.5628 68.042C39.5353 68.118 39.3162 68.7441 38.9964 69.1887Z" fill="#E6E6E6"/>
<path d="M35.9888 72.4812C35.9884 72.4831 35.9864 72.4839 35.9861 72.486C35.945 72.6051 35.2962 74.3065 34.3076 75.3283C33.2901 76.3889 32.9869 78.2808 32.9844 78.2806C32.9852 78.2812 35.0561 77.2162 35.5685 76.2397C36.1977 75.0666 36.0016 72.5594 35.9888 72.4812Z" fill="#929292"/>
<path d="M35.2496 73.4047C34.5381 74.0636 33.8692 74.5718 33.1472 75.3805C32.7271 75.8524 32.4942 77.2238 32.7397 77.859C32.7901 78.1368 32.9842 78.2804 32.9842 78.2804C32.9864 78.2806 33.2898 76.3886 34.3072 75.3282C35.2957 74.3063 35.9447 72.605 35.9858 72.4858C35.9454 72.5479 35.6203 73.0608 35.2496 73.4047Z" fill="#E6E6E6"/>
<path d="M32.0195 78.8171C32.0195 79.8733 30.0217 80.7296 27.5572 80.7296C25.0927 80.7296 23.095 79.8733 23.095 78.8171C23.095 77.7608 25.0927 76.9045 27.5572 76.9045C30.0217 76.9046 32.0195 77.7608 32.0195 78.8171Z" fill="#929292"/>
<path d="M27.5575 80.395C25.125 80.395 23.4297 79.5633 23.4297 78.8168C23.4297 78.0705 25.1249 77.2388 27.5575 77.2388C29.9902 77.2388 31.6854 78.0705 31.6854 78.8168C31.6854 79.5633 29.9902 80.395 27.5575 80.395Z" fill="#E6E6E6"/>
<path d="M18.3779 68.6954V63.4449L18.8699 63.0889C23.5343 59.7134 28.302 55.9047 28.302 53.2437C28.302 52.7981 28.302 51.4418 26.0511 51.4418C24.5949 51.4418 22.7936 52.0744 21.2322 53.1334L20.9296 53.3384H18.925V46.7234L19.6389 46.4121C21.6359 45.5407 24.4339 45 26.9416 45C32.7375 45 36.1978 47.8091 36.1978 52.5141C36.1978 56.507 33.4055 59.6548 30.1318 62.3151H37.1667V68.6954H18.3779Z" fill="#929292"/>
<path d="M35.9771 67.5056H19.5674V64.0526C25.1884 59.9847 29.4917 56.3248 29.4917 53.244C29.4917 49.4924 24.566 49.4351 20.5642 52.1489H20.115V47.5024C24.3649 45.6481 35.0084 44.6179 35.0084 52.5139C35.0084 56.958 30.857 60.4393 26.5861 63.5048H35.9771L35.9771 67.5056Z" fill="#EAEAEA"/>
</svg>
