<svg width="56" height="86" viewBox="0 0 56 86" fill="none" xmlns="http://www.w3.org/2000/svg">
<path d="M45.2717 0L35.5632 27.1112H30.1687L39.8488 0.0221431V0H45.2717Z" fill="#9871F3"/>
<path d="M39.8492 0V0.0221431L30.169 27.1112H24.8424L34.5225 0.0221431V0H39.8492Z" fill="#F0F0F0"/>
<path d="M34.522 0V0.0221431L24.8419 27.1112H19.4002L29.1086 0H34.522Z" fill="#6F9DE2"/>
<path d="M39.3551 27.515C40.0681 29.105 40.4639 30.8163 40.5271 32.553C36.7115 30.6034 32.388 29.504 27.8091 29.504C22.9745 29.504 18.4271 30.7296 14.4601 32.8842C14.4806 31.034 14.8828 29.2058 15.64 27.5149L15.9934 26.7278C16.3877 25.8461 17.2079 25.2294 18.1653 25.0953L19.2079 24.9486C24.7065 24.1789 30.2887 24.1789 35.7888 24.9486L36.8299 25.0953C37.7873 25.2294 38.6075 25.8461 39.0019 26.7278L39.3551 27.515ZM36.549 28.2894V27.2547C36.549 26.955 36.3061 26.7121 36.0064 26.7121H18.9886C18.6889 26.7121 18.446 26.9551 18.446 27.2547V28.2894C18.446 28.5906 18.6889 28.8336 18.9886 28.8336H36.0064C36.3061 28.8336 36.549 28.5907 36.549 28.2894Z" fill="#FDBC62"/>
<path d="M9.69043 0L19.3989 27.1112H24.7933L15.1133 0.0221431V0H9.69043Z" fill="#6F9DE2"/>
<path d="M15.1143 0V0.0221431L24.7943 27.1112H30.121L20.4409 0.0221431V0H15.1143Z" fill="#F0F0F0"/>
<path d="M20.4404 0V0.0221431L30.1206 27.1112H35.5624L25.8539 0H20.4404Z" fill="#9871F3"/>
<path d="M40.7172 32.553C49.7885 37.184 56 46.618 56 57.5031C56 72.9673 43.4633 85.5039 27.9993 85.5039C12.5351 85.5039 0 72.9673 0 57.5031C0 46.8735 5.92291 37.6271 14.6503 32.8841C18.6173 30.7295 23.1647 29.5039 27.9993 29.5039C32.5782 29.5039 36.9017 30.6033 40.7172 32.553Z" fill="#EDAC55"/>
<path d="M27.9993 83.2727C21.1162 83.2727 14.6454 80.5921 9.77858 75.7249C4.91176 70.8578 2.23154 64.3865 2.23154 57.5034C2.23154 48.0475 7.39813 39.3656 15.715 34.8457C19.461 32.8111 23.7089 31.7356 27.9993 31.7356C32.1222 31.7356 36.0598 32.6794 39.7029 34.5409C43.8693 36.6679 47.384 39.892 49.8675 43.8649C52.4196 47.9476 53.7686 52.6637 53.7686 57.5034C53.7686 64.3865 51.0881 70.8577 46.2209 75.725C41.3536 80.5922 34.8824 83.2727 27.9993 83.2727Z" fill="#FDBC62"/>
<path d="M23.4247 33.0073C23.4225 33.009 23.4226 33.0107 23.4205 33.0124C23.3 33.1204 21.5924 34.6908 20.9224 36.0571C20.2264 37.4723 18.0631 38.8909 18.0629 38.8914C18.0591 38.8917 18.1342 36.7248 19.0417 35.7308C20.1242 34.5314 23.3245 33.0515 23.4247 33.0073Z" fill="#C49047"/>
<path d="M22.7286 34.1384C22.342 35.0772 22.1177 35.8867 21.5566 36.9253C21.2293 37.5312 19.6747 38.5746 18.7351 38.7999C18.3595 38.9398 18.0628 38.8909 18.0628 38.8909C18.0631 38.8904 20.2262 37.4719 20.9223 36.0566C21.5922 34.6903 23.2996 33.1199 23.4203 33.012C23.3681 33.0815 22.931 33.6487 22.7286 34.1384Z" fill="#FFDEAE"/>
<path d="M25.9622 37.4895C25.9594 37.4898 25.9579 37.491 25.9552 37.4913C25.786 37.5144 23.3558 37.8643 21.8068 38.6006C20.2016 39.3649 17.5472 39.3133 17.5472 39.3129C17.545 39.3123 19.3212 37.6152 20.7397 37.3067C22.4435 36.9327 25.8549 37.4725 25.9622 37.4895Z" fill="#C49047"/>
<path d="M24.588 38.0318C23.5813 38.5843 22.7884 39.1176 21.5727 39.6482C20.8636 39.9584 18.9349 39.9451 18.0933 39.6091C17.7166 39.5148 17.5472 39.3128 17.5472 39.3128C17.5472 39.3132 20.2018 39.3648 21.8068 38.6005C23.3556 37.8642 25.786 37.5143 25.9552 37.4912C25.8642 37.5196 25.1134 37.7443 24.588 38.0318Z" fill="#FFDEAE"/>
<path d="M18.1905 36.0876C18.1888 36.0896 18.189 36.0912 18.1872 36.0931C18.0866 36.2137 16.6766 37.9636 16.2719 39.386C15.8495 40.8592 13.9636 42.5205 13.9638 42.5209C13.9599 42.5215 13.6073 40.3878 14.3225 39.301C15.1717 37.9907 18.0976 36.1432 18.1905 36.0876Z" fill="#C49047"/>
<path d="M17.71 37.2821C17.504 38.2497 17.4363 39.0706 17.0761 40.1585C16.8656 40.7931 15.5136 42.0097 14.6181 42.3478C14.2694 42.532 13.9631 42.521 13.9631 42.521C13.9628 42.5205 15.849 40.8593 16.2712 39.3861C16.6757 37.9637 18.086 36.2139 18.1865 36.0933C18.1474 36.1678 17.8183 36.7774 17.71 37.2821Z" fill="#FFDEAE"/>
<path d="M21.5984 40.1662C21.5959 40.1668 21.5944 40.1682 21.5918 40.1688C21.427 40.2122 19.0616 40.8553 17.6549 41.77C16.1982 42.7187 13.533 42.9992 13.5325 42.999C13.5298 42.9985 14.9732 41.1126 16.3345 40.6336C17.9686 40.0542 21.4887 40.1622 21.5984 40.1662Z" fill="#C49047"/>
<path d="M20.3275 40.8678C19.4269 41.5342 18.737 42.1556 17.6249 42.8271C16.9767 43.2192 15.0458 43.4458 14.1374 43.2212C13.7422 43.1758 13.5325 42.9988 13.5325 42.9988C13.5331 42.9991 16.1983 42.7186 17.6549 41.7699C19.0615 40.8553 21.427 40.2121 21.5918 40.1687C21.5061 40.2078 20.798 40.5206 20.3275 40.8678Z" fill="#FFDEAE"/>
<path d="M13.3037 39.99C13.3024 39.9922 13.3031 39.9937 13.302 39.9959C13.2376 40.1308 12.3673 42.0803 12.3995 43.5218C12.4273 45.0151 11.0746 46.9788 11.0758 46.9794C11.0724 46.9802 10.0704 45.0048 10.4457 43.8246C10.8833 42.4028 13.227 40.061 13.3037 39.99Z" fill="#C49047"/>
<path d="M13.1874 41.2261C13.275 42.1918 13.4555 42.9907 13.4289 44.1036C13.4124 44.7528 12.4476 46.1843 11.6684 46.6847C11.3811 46.9298 11.0755 46.9796 11.0755 46.9796C11.0746 46.979 12.4272 45.0152 12.3993 43.522C12.367 42.0805 13.2375 40.131 13.3018 39.9961C13.2856 40.075 13.1424 40.7223 13.1874 41.2261Z" fill="#FFDEAE"/>
<path d="M17.896 43.228C17.8935 43.2292 17.8926 43.2307 17.8902 43.2319C17.7403 43.3054 15.5958 44.3828 14.4853 45.5355C13.3354 46.73 10.7962 47.5226 10.7962 47.5226C10.7921 47.5226 11.6377 45.4303 12.838 44.7045C14.2765 43.8279 17.7869 43.245 17.896 43.228Z" fill="#C49047"/>
<path d="M16.8503 44.1488C16.1609 44.9636 15.6675 45.6946 14.7749 46.5563C14.2547 47.0592 12.4228 47.6544 11.4592 47.6174C11.056 47.6514 10.795 47.523 10.7951 47.5229C10.7958 47.5228 13.3349 46.7303 14.4848 45.5357C15.5953 44.383 17.7398 43.3056 17.8897 43.2322C17.8167 43.2862 17.2107 43.7241 16.8503 44.1488Z" fill="#FFDEAE"/>
<path d="M9.77175 44.3562C9.7709 44.3585 9.77198 44.3599 9.77106 44.3622C9.72754 44.5014 9.16276 46.51 9.42468 47.9318C9.68914 49.4051 8.64962 51.4765 8.65093 51.477C8.64791 51.4779 7.32851 49.6193 7.51533 48.4174C7.7256 46.9702 9.70556 44.4335 9.77175 44.3562Z" fill="#C49047"/>
<path d="M9.85019 45.5882C10.0911 46.5339 10.3982 47.3063 10.5478 48.4093C10.6342 49.0526 9.89564 50.5602 9.1963 51.1294C8.94793 51.3991 8.65056 51.4774 8.65056 51.4774C8.64893 51.4768 9.68854 49.4054 9.42423 47.9321C9.16231 46.5101 9.72733 44.5018 9.77061 44.3625C9.76673 44.4418 9.72531 45.0948 9.85019 45.5882Z" fill="#FFDEAE"/>
<path d="M14.8837 47.1208C14.8813 47.1222 14.881 47.1239 14.8785 47.1253C14.7397 47.2119 12.7605 48.4798 11.8319 49.7254C10.8698 51.0158 8.45787 52.0409 8.45702 52.0412C8.4533 52.0413 8.96389 49.8912 10.0512 49.0595C11.3522 48.0557 14.7771 47.1478 14.8837 47.1208Z" fill="#C49047"/>
<path d="M13.9809 48.1301C13.4184 49.0012 13.04 49.7708 12.2833 50.7079C11.8424 51.2548 10.1055 52.0168 9.13606 52.0719C8.73827 52.1437 8.45677 52.0415 8.45677 52.0415C8.45755 52.0412 10.8696 51.016 11.8317 49.7256C12.7601 48.48 14.7394 47.2122 14.8783 47.1255C14.8136 47.1857 14.2749 47.676 13.9809 48.1301Z" fill="#FFDEAE"/>
<path d="M7.09159 49.1218C7.09166 49.1241 7.09267 49.1254 7.09244 49.1278C7.08407 49.2699 7.03096 51.3129 7.65079 52.657C8.28456 54.0505 7.78434 56.2356 7.78651 56.236C7.78458 56.2369 6.00591 54.6323 5.88405 53.4324C5.72155 51.9889 7.04382 49.2071 7.09159 49.1218Z" fill="#C49047"/>
<path d="M7.48001 50.3077C7.95754 51.1899 8.45652 51.8935 8.88303 52.9449C9.13047 53.5583 8.78176 55.1451 8.23634 55.8106C8.05982 56.113 7.78598 56.2362 7.78598 56.2362C7.78366 56.2359 8.2841 54.0506 7.65026 52.6571C7.03035 51.313 7.08362 49.2701 7.0919 49.1279C7.10778 49.2058 7.23157 49.8473 7.48001 50.3077Z" fill="#FFDEAE"/>
<path d="M12.8528 51.0073C12.8509 51.009 12.8509 51.0106 12.8488 51.0124C12.7327 51.1185 11.0892 52.6648 10.4857 54.026C9.85921 55.4359 7.74036 56.8162 7.73989 56.8167C7.73602 56.8172 7.69151 54.6387 8.55707 53.6567C9.58901 52.4724 12.7537 51.0498 12.8528 51.0073Z" fill="#C49047"/>
<path d="M12.2105 52.1327C11.8714 53.0704 11.69 53.8807 11.1788 54.9141C10.8805 55.5169 9.35969 56.5332 8.41748 56.7397C8.04377 56.8724 7.73919 56.8168 7.73943 56.8168C7.73966 56.8164 9.85866 55.4361 10.4852 54.0261C11.0886 52.6648 12.7321 51.1187 12.8483 51.0125C12.7993 51.0814 12.3881 51.6437 12.2105 52.1327Z" fill="#FFDEAE"/>
<path d="M5.56945 54.0344C5.56992 54.0367 5.57139 54.0378 5.5717 54.0401C5.59733 54.1801 6.04048 56.1839 6.97967 57.4073C7.94372 58.6763 7.9815 60.8927 7.98451 60.8928C7.98335 60.8937 5.83702 59.5851 5.42267 58.4296C4.90797 57.0408 5.54166 54.1247 5.56945 54.0344Z" fill="#C49047"/>
<path d="M6.24251 55.1344C6.92884 55.9255 7.5928 56.5392 8.26837 57.5052C8.66105 58.0688 8.70108 59.6752 8.32559 60.4086C8.22494 60.7311 7.9854 60.8925 7.9854 60.8925C7.98238 60.8924 7.94445 58.676 6.98048 57.407C6.04137 56.1837 5.59814 54.1797 5.57251 54.0398C5.60719 54.1133 5.88506 54.7216 6.24251 55.1344Z" fill="#FFDEAE"/>
<path d="M11.7249 55.021C11.7233 55.0229 11.7236 55.0245 11.722 55.0266C11.6323 55.1475 10.376 56.9046 10.1095 58.3276C9.83015 59.8018 8.07882 61.469 8.07897 61.4695C8.07518 61.4702 7.49948 59.3413 8.11614 58.2516C8.84676 56.9383 11.6361 55.077 11.7249 55.021Z" fill="#C49047"/>
<path d="M11.3582 56.218C11.2475 57.1865 11.2627 58.0072 11.0072 59.0959C10.8581 59.7308 9.60523 60.9519 8.72759 61.2938C8.39151 61.4793 8.07826 61.4698 8.07826 61.4698C8.07803 61.4693 9.82936 59.8021 10.1089 58.3279C10.3755 56.9047 11.6315 55.1479 11.7214 55.0269C11.6892 55.1016 11.4168 55.7128 11.3582 56.218Z" fill="#FFDEAE"/>
<path d="M5.49901 59.7559C5.50032 59.758 5.50195 59.7588 5.50311 59.7609C5.57441 59.8901 6.67201 61.7269 7.98816 62.7152C9.34294 63.7414 10.1165 65.8774 10.1199 65.877C10.1195 65.8775 7.61097 65.0496 6.82244 64.0204C5.85847 62.7853 5.50087 59.848 5.49901 59.7559Z" fill="#C49047"/>
<path d="M6.5174 60.6765C7.44614 61.2969 8.29343 61.7524 9.26746 62.5467C9.83403 63.0102 10.4048 64.5543 10.2869 65.34C10.2972 65.6724 10.1201 65.8771 10.1201 65.8771C10.1164 65.8775 9.34264 63.7416 7.98809 62.7153C6.67194 61.7269 5.57434 59.89 5.50304 59.761C5.56141 59.8245 6.03345 60.3524 6.5174 60.6765Z" fill="#FFDEAE"/>
<path d="M11.8029 59.4438C11.8021 59.4461 11.8027 59.4475 11.8019 59.4498C11.7532 59.585 11.1105 61.5355 11.3231 62.9649C11.5381 64.4462 10.4039 66.4151 10.4052 66.4157C10.4019 66.4167 9.13502 64.475 9.37015 63.2976C9.63903 61.88 11.7337 59.5158 11.8029 59.4438Z" fill="#C49047"/>
<path d="M11.8388 60.6731C12.0488 61.6305 12.3327 62.4205 12.4442 63.525C12.5085 64.1694 11.7036 65.6047 10.972 66.1135C10.7098 66.3612 10.4047 66.4156 10.4047 66.4156C10.4035 66.4152 11.5375 64.446 11.3227 62.9648C11.1101 61.5353 11.7528 59.5848 11.8016 59.4497C11.795 59.5284 11.7298 60.1737 11.8388 60.6731Z" fill="#FFDEAE"/>
<path d="M6.86423 64.616C6.86562 64.6181 6.86725 64.6188 6.86872 64.6208C6.95024 64.7469 8.19346 66.5378 9.58936 67.4767C11.0268 68.4521 11.9673 70.553 11.9705 70.5525C11.9704 70.5531 9.39248 69.8141 8.52196 68.8167C7.45928 67.6199 6.87321 64.7076 6.86423 64.616Z" fill="#C49047"/>
<path d="M7.95656 65.4973C8.93601 66.0831 9.82062 66.5073 10.8584 67.2648C11.4623 67.7069 12.1532 69.2253 12.0959 70.0118C12.1317 70.3426 11.97 70.5525 11.97 70.5525C11.9666 70.5529 11.0264 68.4521 9.5889 67.4767C8.19292 66.5377 6.94962 64.747 6.86826 64.6208C6.93151 64.6821 7.44605 65.1913 7.95656 65.4973Z" fill="#FFDEAE"/>
<path d="M13.1634 64.0876C13.1629 64.0898 13.1636 64.0913 13.163 64.0936C13.1245 64.2297 12.6292 66.1943 12.9524 67.6107C13.2811 69.0787 12.2974 71.0783 12.2986 71.0789C12.2954 71.0799 10.8757 69.1894 11.0204 68.0089C11.1801 66.5879 13.0995 64.1616 13.1634 64.0876Z" fill="#C49047"/>
<path d="M13.2946 65.3106C13.5787 66.2569 13.9236 67.034 14.1202 68.1301C14.234 68.7697 13.5379 70.2269 12.8443 70.7586C12.6005 71.0143 12.2992 71.0788 12.2992 71.0788C12.298 71.0782 13.2818 69.0787 12.9531 67.6106C12.6297 66.1942 13.1252 64.2297 13.1636 64.0935C13.1628 64.1721 13.1473 64.8168 13.2946 65.3106Z" fill="#FFDEAE"/>
<path d="M9.61362 69.946C9.61563 69.9478 9.61772 69.948 9.61973 69.9498C9.74399 70.0526 11.5905 71.5012 13.2616 72.1003C14.9861 72.7241 16.6497 74.5539 16.6532 74.553C16.6538 74.5531 13.9419 74.4028 12.7454 73.6317C11.2932 72.7085 9.65527 70.0316 9.61362 69.946Z" fill="#C49047"/>
<path d="M10.9794 70.5519C12.1274 70.8988 13.1246 71.1121 14.3885 71.615C15.1245 71.9086 16.3368 73.2265 16.5725 74.0016C16.7287 74.3142 16.653 74.5533 16.653 74.5533C16.6496 74.5542 14.9859 72.7243 13.2613 72.1005C11.5898 71.5013 9.74389 70.0527 9.61948 69.95C9.70239 69.9948 10.3807 70.3704 10.9794 70.5519Z" fill="#FFDEAE"/>
<path d="M14.0422 74.7383C14.0447 74.7398 14.0464 74.7396 14.0491 74.741C14.1962 74.8248 16.3556 75.9975 18.1326 76.3597C19.968 76.7379 22.0343 78.3211 22.0373 78.32C22.0373 78.32 19.3598 78.5409 18.0037 77.9437C16.3617 77.2299 14.1042 74.8162 14.0422 74.7383Z" fill="#C49047"/>
<path d="M15.5247 75.146C16.7313 75.3293 17.7574 75.402 19.1134 75.7251C19.9033 75.9137 21.4057 77.0504 21.8237 77.7852C22.0519 78.073 22.0364 78.32 22.0364 78.32C22.0335 78.321 19.967 76.7379 18.1317 76.3597C16.3548 75.9973 14.1951 74.8247 14.0481 74.741C14.1403 74.7738 14.8952 75.0499 15.5247 75.146Z" fill="#FFDEAE"/>
<path d="M15.4198 68.0369C15.4199 68.0392 15.4213 68.0403 15.4215 68.0427C15.4334 68.1826 15.6759 70.1888 16.5015 71.4889C17.3487 72.8372 17.1543 74.9922 17.1568 74.9923C17.1552 74.9933 15.1125 73.4725 14.8146 72.2995C14.4402 70.8896 15.3837 68.1222 15.4198 68.0369Z" fill="#C49047"/>
<path d="M15.9884 69.1891C16.6026 70.041 17.2128 70.7168 17.7991 71.7354C18.1397 72.3298 18.0137 73.8949 17.5546 74.5623C17.4186 74.8636 17.1576 74.9921 17.1576 74.9921C17.1552 74.992 17.3496 72.837 16.5022 71.4887C15.6766 70.1887 15.4343 68.1824 15.4222 68.0425C15.4495 68.1184 15.6686 68.7445 15.9884 69.1891Z" fill="#FFDEAE"/>
<path d="M18.997 72.4817C18.9975 72.4836 18.9995 72.4844 18.9997 72.4865C19.0408 72.6056 19.6896 74.307 20.6782 75.3288C21.6957 76.3894 21.999 78.2813 22.0014 78.281C22.0005 78.2817 19.9297 77.2167 19.4172 76.2402C18.7883 75.0671 18.9844 72.5599 18.997 72.4817Z" fill="#C49047"/>
<path d="M19.7362 73.4056C20.4477 74.0644 21.1166 74.5725 21.8386 75.3812C22.2586 75.8531 22.4916 77.2245 22.2461 77.8597C22.1958 78.1376 22.0017 78.2811 22.0017 78.2811C21.9994 78.2814 21.6961 76.3893 20.6786 75.3289C19.6901 74.307 19.0412 72.6057 19.0001 72.4866C19.0403 72.5487 19.3655 73.0615 19.7362 73.4056Z" fill="#FFDEAE"/>
<path d="M31.5614 33.0068C31.5636 33.0085 31.5636 33.0102 31.5656 33.0119C31.6861 33.1199 33.3937 34.6904 34.0637 36.0566C34.7597 37.4718 36.923 38.8904 36.923 38.8904C36.927 38.8912 36.8519 36.7243 35.9444 35.7303C34.8619 34.5309 31.6616 33.051 31.5614 33.0068Z" fill="#C49047"/>
<path d="M32.257 34.1386C32.6435 35.0775 32.8679 35.8869 33.429 36.9255C33.7562 37.5314 35.311 38.5748 36.2506 38.8001C36.6261 38.94 36.9229 38.8911 36.9229 38.8911C36.9229 38.8911 34.7594 37.4721 34.0633 36.0569C33.3934 34.6905 31.686 33.1201 31.5653 33.0122C31.6176 33.0817 32.0546 33.649 32.257 34.1386Z" fill="#FFDEAE"/>
<path d="M29.0233 37.4892C29.0261 37.4896 29.0276 37.4908 29.0303 37.4911C29.1994 37.5141 31.6296 37.8641 33.1787 38.6003C34.7839 39.3646 37.4383 39.3131 37.4383 39.3126C37.4405 39.3121 35.6643 37.6149 34.2457 37.3065C32.5419 36.9325 29.1305 37.4723 29.0233 37.4892Z" fill="#C49047"/>
<path d="M30.3963 38.0316C31.403 38.5841 32.196 39.1173 33.4116 39.648C34.1207 39.9582 36.0495 39.9449 36.8911 39.6088C37.2676 39.5146 37.4372 39.3125 37.4372 39.3125C37.4372 39.3129 34.7826 39.3645 33.1776 38.6003C31.6287 37.864 29.1983 37.514 29.0292 37.491C29.1202 37.5194 29.871 37.7441 30.3963 38.0316Z" fill="#FFDEAE"/>
<path d="M36.7931 36.0881C36.7948 36.0901 36.7946 36.0917 36.7964 36.0936C36.897 36.2142 38.307 37.964 38.7117 39.3865C39.1341 40.8597 41.02 42.5209 41.0198 42.5214C41.0237 42.5219 41.3762 40.3883 40.6611 39.3015C39.8119 37.9912 36.886 36.1436 36.7931 36.0881Z" fill="#C49047"/>
<path d="M37.2735 37.2823C37.4795 38.2499 37.5472 39.0708 37.9074 40.1587C38.1178 40.7933 39.4698 42.0099 40.3654 42.3481C40.7141 42.5323 41.0204 42.5213 41.0204 42.5213C41.0207 42.5207 39.1345 40.8595 38.7123 39.3864C38.3078 37.964 36.8975 36.2141 36.797 36.0935C36.836 36.1681 37.1652 36.7777 37.2735 37.2823Z" fill="#FFDEAE"/>
<path d="M33.3887 40.1667C33.3912 40.1673 33.3927 40.1687 33.3954 40.1693C33.5601 40.2127 35.9256 40.8558 37.3322 41.7705C38.789 42.7191 41.4542 42.9997 41.4546 42.9995C41.4573 42.999 40.014 41.1131 38.6527 40.6341C37.0186 40.0547 33.4985 40.1627 33.3887 40.1667Z" fill="#C49047"/>
<path d="M34.6598 40.8683C35.5605 41.5347 36.2503 42.156 37.3624 42.8276C38.0105 43.2197 39.9415 43.4463 40.8499 43.2217C41.2451 43.1763 41.4548 42.9993 41.4548 42.9993C41.4543 42.9996 38.7891 42.719 37.3324 41.7704C35.9258 40.8558 33.5603 40.2126 33.3956 40.1692C33.4813 40.2083 34.1893 40.5211 34.6598 40.8683Z" fill="#FFDEAE"/>
<path d="M41.6824 39.9893C41.6837 39.9915 41.683 39.993 41.6841 39.9952C41.7484 40.1301 42.6188 42.0796 42.5866 43.5211C42.5588 45.0143 43.9114 46.9781 43.9102 46.9787C43.9136 46.9795 44.9156 45.0041 44.5404 43.8239C44.1027 42.4021 41.759 40.0603 41.6824 39.9893Z" fill="#C49047"/>
<path d="M41.7996 41.2253C41.7119 42.1911 41.5315 42.99 41.5582 44.1029C41.5746 44.7521 42.5394 46.1836 43.3186 46.684C43.6059 46.9291 43.9115 46.9789 43.9115 46.9789C43.9124 46.9782 42.5598 45.0145 42.5876 43.5213C42.62 42.0798 41.7495 40.1302 41.6851 39.9954C41.7015 40.0743 41.8447 40.7216 41.7996 41.2253Z" fill="#FFDEAE"/>
<path d="M37.0909 43.2271C37.0933 43.2282 37.0944 43.2298 37.0967 43.2309C37.2465 43.3044 39.3911 44.3818 40.5015 45.5345C41.6515 46.729 44.1907 47.5216 44.1912 47.5216C44.1948 47.5216 43.3492 45.4294 42.1489 44.7035C40.7103 43.8269 37.2 43.244 37.0909 43.2271Z" fill="#C49047"/>
<path d="M38.1372 44.1476C38.8265 44.9624 39.3199 45.6934 40.2125 46.5551C40.7327 47.058 42.5646 47.6532 43.5282 47.6162C43.9314 47.6501 44.1924 47.5218 44.1923 47.5217C44.1916 47.5216 41.6525 46.7291 40.5025 45.5345C39.3922 44.3817 37.2476 43.3044 37.0977 43.231C37.1708 43.285 37.7767 43.7229 38.1372 44.1476Z" fill="#FFDEAE"/>
<path d="M45.2165 44.3562C45.2173 44.3585 45.2163 44.3599 45.2171 44.3622C45.2606 44.5014 45.8255 46.51 45.5635 47.9318C45.299 49.4051 46.3386 51.4765 46.3372 51.477C46.3403 51.4779 47.6597 49.6193 47.4728 48.4174C47.2626 46.9702 45.2827 44.4335 45.2165 44.3562Z" fill="#C49047"/>
<path d="M45.1371 45.5884C44.8963 46.5341 44.5892 47.3066 44.4395 48.4095C44.3531 49.0529 45.0917 50.5605 45.791 51.1296C46.0394 51.3993 46.3368 51.4776 46.3368 51.4776C46.3384 51.4771 45.2988 49.4056 45.5632 47.9324C45.8251 46.5104 45.2601 44.502 45.2168 44.3628C45.2206 44.4421 45.2621 45.095 45.1371 45.5884Z" fill="#FFDEAE"/>
<path d="M40.1014 47.1211C40.1038 47.1225 40.1041 47.1242 40.1066 47.1255C40.2454 47.2121 42.2246 48.4801 43.1532 49.7256C44.1153 51.016 46.5273 52.0412 46.5281 52.0415C46.5318 52.0416 46.0212 49.8914 44.9339 49.0598C43.633 48.0559 40.208 47.148 40.1014 47.1211Z" fill="#C49047"/>
<path d="M41.0036 48.1301C41.5662 49.0012 41.9445 49.7708 42.7012 50.7079C43.1421 51.2548 44.879 52.0168 45.8485 52.0719C46.2463 52.1437 46.5279 52.0414 46.5279 52.0414C46.527 52.0412 44.1149 51.016 43.1529 49.7256C42.2245 48.48 40.2452 47.2122 40.1063 47.1255C40.1708 47.1857 40.7096 47.676 41.0036 48.1301Z" fill="#FFDEAE"/>
<path d="M47.892 49.1216C47.8919 49.1239 47.8909 49.1251 47.8911 49.1275C47.8994 49.2696 47.9526 51.3127 47.3327 52.6568C46.699 54.0503 47.1992 56.2354 47.197 56.2358C47.199 56.2367 48.9776 54.6321 49.0995 53.4321C49.262 51.9886 47.9396 49.2069 47.892 49.1216Z" fill="#C49047"/>
<path d="M47.5035 50.3075C47.026 51.1896 46.527 51.8932 46.1005 52.9447C45.853 53.558 46.2017 55.1448 46.7472 55.8104C46.9236 56.1127 47.1975 56.236 47.1975 56.236C47.1998 56.2357 46.6994 54.0504 47.3332 52.6569C47.9531 51.3127 47.8999 49.2698 47.8916 49.1277C47.8757 49.2056 47.7519 49.8471 47.5035 50.3075Z" fill="#FFDEAE"/>
<path d="M42.1307 51.0071C42.1327 51.0087 42.1327 51.0104 42.1347 51.0121C42.2509 51.1183 43.8943 52.6646 44.4979 54.0257C45.1243 55.4357 47.2432 56.816 47.2437 56.8164C47.2475 56.817 47.292 54.6384 46.4265 53.6565C45.3945 52.4722 42.2298 51.0496 42.1307 51.0071Z" fill="#C49047"/>
<path d="M42.7725 52.1322C43.1114 53.07 43.2929 53.8802 43.8042 54.9136C44.1025 55.5165 45.6233 56.5328 46.5654 56.7392C46.9392 56.8719 47.2437 56.8163 47.2437 56.8163C47.2432 56.8159 45.1242 55.4356 44.4977 54.0256C43.8944 52.6644 42.2508 51.1182 42.1346 51.012C42.1837 51.0809 42.595 51.6433 42.7725 52.1322Z" fill="#FFDEAE"/>
<path d="M49.4158 54.0344C49.4153 54.0367 49.4138 54.0378 49.4135 54.0401C49.3879 54.1801 48.9448 56.1839 48.0056 57.4073C47.0415 58.6763 47.0037 60.8927 47.0007 60.8928C47.0019 60.8937 49.1481 59.5851 49.5626 58.4296C50.0773 57.0408 49.4436 54.1247 49.4158 54.0344Z" fill="#C49047"/>
<path d="M48.7436 55.1347C48.0573 55.9258 47.3934 56.5394 46.7178 57.5055C46.3251 58.0691 46.2851 59.6755 46.6606 60.4088C46.7612 60.7314 47.0007 60.8928 47.0007 60.8928C47.0038 60.8927 47.0416 58.6763 48.0057 57.4073C48.9448 56.184 49.388 54.1799 49.4137 54.04C49.379 54.1136 49.1011 54.7218 48.7436 55.1347Z" fill="#FFDEAE"/>
<path d="M43.2595 55.0208C43.261 55.0227 43.2607 55.0243 43.2624 55.0263C43.3521 55.1472 44.6083 56.9044 44.8748 58.3274C45.1542 59.8016 46.9055 61.4687 46.9054 61.4693C46.9091 61.47 47.4849 59.3411 46.8682 58.2514C46.1375 56.9381 43.3482 55.0767 43.2595 55.0208Z" fill="#C49047"/>
<path d="M43.6255 56.217C43.7362 57.1855 43.7209 58.0063 43.9764 59.0949C44.1255 59.7298 45.3784 60.951 46.256 61.2928C46.5921 61.4783 46.9053 61.4688 46.9053 61.4688C46.9055 61.4684 45.1542 59.8011 44.8747 58.3269C44.6081 56.9037 43.3522 55.147 43.2623 55.0259C43.2944 55.1006 43.5669 55.7118 43.6255 56.217Z" fill="#FFDEAE"/>
<path d="M49.4853 59.7561C49.484 59.7583 49.4824 59.759 49.4812 59.7611C49.41 59.8903 48.3123 61.7272 46.9962 62.7154C45.6414 63.7416 44.8679 65.8777 44.8644 65.8773C44.8648 65.8778 47.3734 65.0498 48.1618 64.0207C49.1258 62.7855 49.4834 59.8482 49.4853 59.7561Z" fill="#C49047"/>
<path d="M48.4668 60.6765C47.5381 61.2969 46.6908 61.7524 45.7168 62.5467C45.1502 63.0102 44.5795 64.5543 44.6973 65.34C44.6871 65.6724 44.8641 65.8771 44.8643 65.8771C44.8678 65.8775 45.6415 63.7416 46.9961 62.7153C48.3122 61.7269 49.4097 59.89 49.4811 59.761C49.4228 59.8245 48.9509 60.3524 48.4668 60.6765Z" fill="#FFDEAE"/>
<path d="M43.1833 59.4436C43.184 59.4458 43.1834 59.4472 43.1841 59.4496C43.2329 59.5847 43.8756 61.5353 43.663 62.9647C43.4481 64.446 44.5822 66.4149 44.5809 66.4154C44.5841 66.4164 45.851 64.4748 45.6159 63.2974C45.347 61.8797 43.2524 59.5155 43.1833 59.4436Z" fill="#C49047"/>
<path d="M43.1462 60.6731C42.9362 61.6305 42.6524 62.4205 42.5408 63.525C42.4766 64.1694 43.2815 65.6047 44.013 66.1135C44.2752 66.3612 44.5803 66.4156 44.5803 66.4156C44.5816 66.4152 43.4476 64.446 43.6624 62.9648C43.875 61.5353 43.2323 59.5848 43.1835 59.4497C43.1901 59.5284 43.2553 60.1737 43.1462 60.6731Z" fill="#FFDEAE"/>
<path d="M48.1209 64.6157C48.1195 64.6178 48.1178 64.6186 48.1164 64.6206C48.0348 64.7466 46.7916 66.5375 45.3957 67.4765C43.9583 68.4518 43.0178 70.5527 43.0146 70.5523C43.0147 70.5529 45.5926 69.8139 46.4631 68.8164C47.5259 67.6196 48.1119 64.7074 48.1209 64.6157Z" fill="#C49047"/>
<path d="M47.0283 65.4971C46.0489 66.0829 45.1643 66.507 44.1264 67.2646C43.5226 67.7067 42.8317 69.2251 42.889 70.0116C42.8531 70.3423 43.0148 70.5523 43.0148 70.5523C43.0183 70.5527 43.9584 68.4518 45.396 67.4765C46.7919 66.5375 48.0353 64.7467 48.1166 64.6206C48.0535 64.6818 47.5389 65.191 47.0283 65.4971Z" fill="#FFDEAE"/>
<path d="M41.8212 64.0874C41.8217 64.0896 41.821 64.091 41.8216 64.0934C41.8601 64.2295 42.3555 66.1941 42.0322 67.6104C41.7035 69.0785 42.6872 71.0781 42.686 71.0786C42.6892 71.0796 44.1089 69.1892 43.9642 68.0087C43.8045 66.5876 41.8851 64.1613 41.8212 64.0874Z" fill="#C49047"/>
<path d="M41.6914 65.3106C41.4074 66.2569 41.0625 67.034 40.8659 68.1301C40.752 68.7697 41.4482 70.2269 42.1418 70.7586C42.3856 71.0143 42.6869 71.0788 42.6869 71.0788C42.688 71.0782 41.7042 69.0787 42.033 67.6106C42.3563 66.1942 41.8608 64.2297 41.8223 64.0935C41.8232 64.1721 41.8387 64.8168 41.6914 65.3106Z" fill="#FFDEAE"/>
<path d="M45.3727 69.9463C45.3707 69.9481 45.3686 69.9482 45.3666 69.95C45.2424 70.0528 43.3959 71.5014 41.7247 72.1006C40.0002 72.7244 38.3367 74.5541 38.333 74.5533C38.333 74.5533 41.0444 74.4031 42.2409 73.632C43.6931 72.7087 45.3309 70.0318 45.3727 69.9463Z" fill="#C49047"/>
<path d="M44.0063 70.5521C42.8581 70.8991 41.861 71.1124 40.597 71.6153C39.8612 71.9089 38.6487 73.2267 38.413 74.0019C38.2569 74.3144 38.3326 74.5535 38.3326 74.5535C38.336 74.5544 39.9996 72.7246 41.7242 72.1008C43.3957 71.5015 45.2417 70.0529 45.3662 69.9502C45.2832 69.995 44.605 70.3707 44.0063 70.5521Z" fill="#FFDEAE"/>
<path d="M40.9442 74.738C40.9416 74.7395 40.9399 74.7394 40.9373 74.7407C40.7902 74.8246 38.6308 75.9972 36.8538 76.3595C35.0184 76.7377 32.9521 78.3208 32.9491 78.3198C32.9491 78.3198 35.6266 78.5406 36.9826 77.9434C38.6247 77.2297 40.8822 74.816 40.9442 74.738Z" fill="#C49047"/>
<path d="M39.461 75.1458C38.2543 75.329 37.2283 75.4017 35.8723 75.7248C35.0823 75.9135 33.58 77.0501 33.162 77.785C32.9337 78.0728 32.9493 78.3198 32.9493 78.3198C32.9523 78.3207 35.0187 76.7376 36.8541 76.3594C38.631 75.9971 40.7906 74.8245 40.9377 74.7407C40.8454 74.7735 40.0903 75.0496 39.461 75.1458Z" fill="#FFDEAE"/>
<path d="M39.5661 68.0361C39.566 68.0385 39.5645 68.0396 39.5644 68.0419C39.5524 68.1819 39.3099 70.1881 38.4843 71.4882C37.6371 72.8364 37.8315 74.9915 37.829 74.9915C37.8306 74.9926 39.8733 73.4718 40.1712 72.2988C40.5457 70.8889 39.6023 68.1215 39.5661 68.0361Z" fill="#C49047"/>
<path d="M38.998 69.1886C38.3839 70.0405 37.7737 70.7163 37.1874 71.735C36.8468 72.3293 36.9728 73.8945 37.4319 74.5618C37.568 74.8631 37.829 74.9917 37.829 74.9917C37.8314 74.9915 37.637 72.8365 38.4843 71.4882C39.3099 70.1882 39.5523 68.1819 39.5644 68.042C39.5369 68.1179 39.3178 68.744 38.998 69.1886Z" fill="#FFDEAE"/>
<path d="M35.9908 72.4812C35.9903 72.4831 35.9884 72.4839 35.9881 72.486C35.9469 72.6051 35.2982 74.3065 34.3095 75.3283C33.292 76.3889 32.9888 78.2808 32.9863 78.2806C32.9872 78.2812 35.058 77.2162 35.5705 76.2397C36.1996 75.0666 36.0036 72.5594 35.9908 72.4812Z" fill="#C49047"/>
<path d="M35.2515 73.4051C34.54 74.0639 33.871 74.572 33.1491 75.3808C32.729 75.8526 32.4961 77.224 32.7416 77.8592C32.7919 78.1371 32.986 78.2806 32.986 78.2806C32.9883 78.2809 33.2917 76.3889 34.3091 75.3284C35.2976 74.3066 35.9465 72.6052 35.9876 72.4861C35.9474 72.5482 35.6222 73.061 35.2515 73.4051Z" fill="#FFDEAE"/>
<path d="M19.7178 68.0765V62.2167H24.1023V53.4572H19.7178V47.8346H20.8325C21.4525 47.8346 22.0529 47.7977 22.6168 47.725C23.1107 47.6615 23.5139 47.5564 23.8156 47.4126C24.1073 47.2724 24.3217 47.1005 24.45 46.9034C24.5856 46.6946 24.6669 46.4043 24.6912 46.0404L24.7606 45H31.54V62.2167H35.8267V68.0765H19.7178Z" fill="#C49047"/>
<path d="M34.7134 66.9616H20.834V63.3312H25.2185V52.3421H20.834V48.9491C21.5042 48.9491 22.1465 48.9096 22.7609 48.8303C23.3752 48.7514 23.8871 48.614 24.2969 48.4185C24.7807 48.186 25.1438 47.8833 25.3859 47.5109C25.6279 47.1386 25.7675 46.673 25.8049 46.1145H30.4267V63.3312H34.7134V66.9616Z" fill="#FFDEAE"/>
<path d="M32.0183 78.8171C32.0183 79.8733 30.0205 80.7296 27.556 80.7296C25.0916 80.7296 23.0938 79.8733 23.0938 78.8171C23.0938 77.7608 25.0916 76.9045 27.556 76.9045C30.0205 76.9046 32.0183 77.7608 32.0183 78.8171Z" fill="#C49047"/>
<path d="M27.5565 80.395C25.1239 80.395 23.4287 79.5633 23.4287 78.8168C23.4287 78.0705 25.1239 77.2388 27.5565 77.2388C29.9892 77.2388 31.6845 78.0705 31.6845 78.8168C31.6845 79.5633 29.9892 80.395 27.5565 80.395Z" fill="#FFDEAE"/>
</svg>
